<?xml version="1.0" encoding="UTF-8"?>
<svg version="1.1" xmlns="http://www.w3.org/2000/svg" width="1000" height="215">
<path d="M0 0 C2.17278612 1.89950787 4.05592879 3.85653687 6 6 C6.06058594 5.21753906 6.12117187 4.43507813 6.18359375 3.62890625 C6.30927734 2.11103516 6.30927734 2.11103516 6.4375 0.5625 C6.55931641 -0.95150391 6.55931641 -0.95150391 6.68359375 -2.49609375 C7 -5 7 -5 8 -6 C9.69558726 -6.09932153 11.39525747 -6.13080007 13.09375 -6.1328125 C14.12371094 -6.13410156 15.15367187 -6.13539062 16.21484375 -6.13671875 C17.84099609 -6.13091797 17.84099609 -6.13091797 19.5 -6.125 C20.58410156 -6.12886719 21.66820312 -6.13273437 22.78515625 -6.13671875 C23.81511719 -6.13542969 24.84507812 -6.13414063 25.90625 -6.1328125 C27.33420898 -6.13112061 27.33420898 -6.13112061 28.79101562 -6.12939453 C31 -6 31 -6 32 -5 C32.10403443 -3.62543362 32.13960523 -2.24560339 32.14717102 -0.86712646 C32.15432632 0.02418976 32.16148163 0.91550598 32.16885376 1.83383179 C32.17154266 2.81969269 32.17423157 3.80555359 32.17700195 4.82128906 C32.18357315 5.8539389 32.19014435 6.88658875 32.19691467 7.95053101 C32.21671876 11.38889634 32.22833162 14.82721767 32.23828125 18.265625 C32.24235678 19.4399987 32.2464323 20.61437241 32.25063133 21.82433319 C32.27153134 28.05085578 32.28581087 34.27735612 32.29516602 40.50390625 C32.30618408 46.91601249 32.34051947 53.32776724 32.38033772 59.73974991 C32.40659102 64.68313202 32.41486604 69.62643194 32.41844749 74.56987762 C32.42329806 76.9315806 32.43486799 79.29328028 32.45348549 81.65491486 C32.59064062 100.22087622 31.48315538 115.70628823 18.5 130.1875 C6.00052002 141.94891544 -10.90381404 144.76707554 -27.4140625 144.27734375 C-40.63492839 143.62147123 -53.60532014 138.94080227 -63.4375 129.796875 C-68.33265893 124.16744223 -72.14032479 118.4946044 -73 111 C-56.09614853 103.29153069 -56.09614853 103.29153069 -51 104 C-49.26171875 105.828125 -49.26171875 105.828125 -47.6875 108.25 C-42.72721989 115.0596949 -36.88610927 117.35297833 -28.703125 118.74609375 C-19.39770577 119.6201577 -9.78671963 118.26200305 -2.1171875 112.61328125 C2.2418408 108.60171173 3.85450261 104.55493424 4.1953125 98.5703125 C4.17210937 97.43335938 4.14890625 96.29640625 4.125 95.125 C4.10695313 93.97257812 4.08890625 92.82015625 4.0703125 91.6328125 C4.04710937 90.76398438 4.02390625 89.89515625 4 89 C3.29037109 89.58007812 3.29037109 89.58007812 2.56640625 90.171875 C-9.88497243 99.97763911 -21.61578419 100.87116994 -37 100 C-44.59408268 98.90183608 -50.69261685 95.21622565 -57 91 C-58.3303125 90.13375 -58.3303125 90.13375 -59.6875 89.25 C-70.29680831 78.92742975 -74.98003743 65.44946981 -76 51 C-76.05414062 50.26394531 -76.10828125 49.52789062 -76.1640625 48.76953125 C-76.736229 33.24301297 -72.53078819 17.56448518 -62 6 C-45.71185396 -10.82995547 -19.3175956 -13.24635127 0 0 Z M-39 23 C-45.37687336 29.60771041 -48.09511586 36.8296037 -48.375 45.9375 C-48.0313425 55.97993573 -45.61291436 62.57118169 -38.51953125 69.859375 C-32.37236759 75.08208149 -25.71919036 76.70699339 -17.7421875 76.390625 C-11.14578134 75.450966 -4.68163876 72.81539987 0 68 C6.72153646 59.01829777 7.9749991 50.07055943 7 39 C5.17720476 31.0430076 0.76606762 24.41848925 -5.87890625 19.65234375 C-16.61223424 13.60264979 -29.64576474 15.22453862 -39 23 Z " fill="#202632" transform="translate(953,71)"/>
<path d="M0 0 C8.58 0 17.16 0 26 0 C26.33 18.48 26.66 36.96 27 56 C29.97 53.69 32.94 51.38 36 49 C38.890625 47.4765625 38.890625 47.4765625 41.25 46.625 C42.43335938 46.18027344 42.43335938 46.18027344 43.640625 45.7265625 C55.26580469 42.14662306 67.94746984 43.05351572 79 48 C87.27512989 52.69131424 91.63139459 59.47325404 95.3125 68.0625 C97.43754931 77.14225615 97.14747994 86.41929022 97.1328125 95.68359375 C97.13348719 97.19051631 97.13445859 98.69743877 97.13571167 100.20436096 C97.13717771 103.3435267 97.13506736 106.48266379 97.13037109 109.62182617 C97.12463984 113.64915684 97.12798102 117.67642135 97.13394356 121.70374966 C97.13754945 124.80661014 97.13641105 127.9094548 97.13381577 131.01231575 C97.13314835 132.49831208 97.13396845 133.98430983 97.13629532 135.47030449 C97.13882601 137.53810344 97.13497696 139.60579321 97.12939453 141.67358398 C97.12859894 142.85000961 97.12780334 144.02643524 97.12698364 145.23851013 C97 148 97 148 96 150 C87.42 150 78.84 150 70 150 C69.95101562 145.71257812 69.90203125 141.42515625 69.8515625 137.0078125 C69.80694918 133.56489465 69.76045795 130.12201341 69.71270752 126.67913818 C69.66299878 123.05826477 69.61651175 119.4374189 69.578125 115.81640625 C69.54094499 112.32141978 69.49450217 108.82666255 69.44193649 105.33187485 C69.41469263 103.36578698 69.39676537 101.39957702 69.37905884 99.43338013 C69.29598328 85.25922863 69.29598328 85.25922863 63 73 C58.83317495 69.54748781 54.27211131 69 49 69 C40.69538057 69.96635572 35.40429034 74.09999036 30.296875 80.51171875 C26.27720954 88.22414917 26.66596193 97.09906095 26.5859375 105.56640625 C26.56657135 106.84104233 26.5472052 108.11567841 26.5272522 109.42893982 C26.47787583 112.78747269 26.43649319 116.14590398 26.39910889 119.50457764 C26.35881664 122.94390349 26.30784056 126.38307005 26.2578125 129.82226562 C26.16211764 136.54807396 26.07697318 143.27395274 26 150 C21.68751391 150.02886537 17.37505238 150.04675255 13.0625 150.0625 C11.83080078 150.07087891 10.59910156 150.07925781 9.33007812 150.08789062 C8.16025391 150.09111328 6.99042969 150.09433594 5.78515625 150.09765625 C4.70113525 150.10289307 3.61711426 150.10812988 2.50024414 150.11352539 C0 150 0 150 -1 149 C-1.0987757 147.09135951 -1.12632207 145.17901685 -1.12698364 143.26782227 C-1.12980347 142.02259796 -1.13262329 140.77737366 -1.13552856 139.49441528 C-1.13358397 138.10174546 -1.13153578 136.70907578 -1.12939453 135.31640625 C-1.13074853 133.85977128 -1.13252845 132.40313666 -1.13470459 130.94650269 C-1.13927912 126.97967064 -1.13748928 123.01286448 -1.1343255 119.04603195 C-1.131802 114.90381549 -1.13413941 110.76160131 -1.13571167 106.61938477 C-1.1375334 99.66194255 -1.13512698 92.70451092 -1.13037109 85.74707031 C-1.12492847 77.69172472 -1.12669112 69.63640443 -1.1321975 61.58105946 C-1.13672855 54.67746927 -1.13737922 47.77388672 -1.13475883 40.87029552 C-1.13319601 36.74157992 -1.13300243 32.61287623 -1.13629532 28.48416138 C-1.13917391 24.60350478 -1.13719857 20.72288097 -1.13140106 16.84222794 C-1.1300734 15.41392191 -1.13046769 13.98561315 -1.13266373 12.5573082 C-1.13537495 10.61559901 -1.13138066 8.67388383 -1.12698364 6.73217773 C-1.12660662 5.64299545 -1.12622959 4.55381317 -1.12584114 3.43162537 C-1 1 -1 1 0 0 Z " fill="#202632" transform="translate(307,19)"/>
<path d="M0 0 C0.61875 0.53625 1.2375 1.0725 1.875 1.625 C1.93558594 0.91472656 1.99617188 0.20445313 2.05859375 -0.52734375 C2.18427734 -1.90599609 2.18427734 -1.90599609 2.3125 -3.3125 C2.43431641 -4.68728516 2.43431641 -4.68728516 2.55859375 -6.08984375 C2.875 -8.375 2.875 -8.375 3.875 -9.375 C5.57058726 -9.47432153 7.27025747 -9.50580007 8.96875 -9.5078125 C9.99871094 -9.50910156 11.02867187 -9.51039062 12.08984375 -9.51171875 C13.71599609 -9.50591797 13.71599609 -9.50591797 15.375 -9.5 C16.45910156 -9.50386719 17.54320312 -9.50773437 18.66015625 -9.51171875 C19.69011719 -9.51042969 20.72007812 -9.50914063 21.78125 -9.5078125 C23.20920898 -9.50612061 23.20920898 -9.50612061 24.66601562 -9.50439453 C26.875 -9.375 26.875 -9.375 27.875 -8.375 C27.97569779 -5.21423656 28.01114023 -2.07527973 28.00439453 1.0859375 C28.00702301 2.5760434 28.00702301 2.5760434 28.00970459 4.09625244 C28.01412511 7.39751912 28.01118441 10.69873273 28.0078125 14 C28.00848548 16.28304047 28.00945546 18.56608087 28.01071167 20.84912109 C28.01218891 25.64095744 28.01003323 30.43277519 28.00537109 35.22460938 C27.9996738 41.38216635 28.00295266 47.53967974 28.00894356 53.69723511 C28.01254845 58.41365897 28.01141091 63.13007241 28.00881577 67.84649658 C28.0081463 70.1176148 28.0089756 72.38873394 28.01129532 74.65985107 C28.01382067 77.82794722 28.0099829 80.99597172 28.00439453 84.1640625 C28.00641876 85.11267151 28.00844299 86.06128052 28.01052856 87.03863525 C27.98926224 93.51073776 27.98926224 93.51073776 26.875 94.625 C25.09428754 94.71226223 23.3101686 94.73199041 21.52734375 94.72265625 C20.44775391 94.71943359 19.36816406 94.71621094 18.25585938 94.71289062 C17.11955078 94.70451172 15.98324219 94.69613281 14.8125 94.6875 C13.67232422 94.68298828 12.53214844 94.67847656 11.35742188 94.67382812 C8.52992582 94.6619976 5.70245655 94.6440615 2.875 94.625 C2.545 90.995 2.215 87.365 1.875 83.625 C0.9675 84.49125 0.06 85.3575 -0.875 86.25 C-13.18623624 96.84924429 -26.63479778 97.74716822 -42.125 96.625 C-46.1823979 95.82719704 -49.49039946 94.56951129 -53.125 92.625 C-53.9809375 92.20089844 -54.836875 91.77679688 -55.71875 91.33984375 C-67.45467973 84.99466487 -73.92319993 74.91686863 -77.875 62.4375 C-83.00103455 44.94341698 -80.73926053 25.83456149 -72.1953125 9.890625 C-65.48949224 -0.68685752 -55.92016284 -7.40029757 -43.875 -10.75 C-27.13035953 -13.70852482 -13.45547975 -10.22616461 0 0 Z M-44.0078125 20.34765625 C-51.34008708 28.063418 -52.72560889 35.63459863 -52.4765625 46.1171875 C-51.67830397 54.08203373 -49.00993767 61.13239151 -43.125 66.625 C-35.21989533 71.82423551 -28.58267924 73.50303388 -19.125 72.625 C-11.0810766 70.68979524 -5.22531093 66.59684009 -0.84375 59.5703125 C3.4054771 51.52713263 4.18206095 42.56189131 2.2265625 33.6796875 C-0.13870856 26.4221464 -3.69279435 20.41234688 -10.26171875 16.28125 C-21.66017095 10.71132571 -34.45060355 11.60340491 -44.0078125 20.34765625 Z " fill="#202632" transform="translate(497.125,74.375)"/>
<path d="M0 0 C7.96739935 6.48402558 11.62657604 14.55426824 13.03515625 24.65625 C13.12455198 27.11048622 13.16302491 29.56684174 13.16455078 32.02270508 C13.16717926 33.08962585 13.16717926 33.08962585 13.16986084 34.17810059 C13.1742346 36.51068618 13.17135881 38.84319499 13.16796875 41.17578125 C13.1686427 42.80148839 13.16961349 44.42719543 13.17086792 46.05290222 C13.1723385 49.44958461 13.17020952 52.84624061 13.16552734 56.24291992 C13.15980765 60.60561355 13.16312719 64.96824596 13.16909981 69.33093739 C13.17270334 72.68253547 13.1715682 76.03411888 13.16897202 79.38571739 C13.16830334 80.99534805 13.1691291 82.60498002 13.17145157 84.21460915 C13.17397713 86.4553649 13.17013996 88.69601941 13.16455078 90.93676758 C13.16375519 92.2132869 13.16295959 93.48980621 13.16213989 94.80500793 C13.03515625 97.65625 13.03515625 97.65625 12.03515625 98.65625 C10.10848118 98.74373207 8.17863764 98.76322334 6.25 98.75390625 C4.49526367 98.74907227 4.49526367 98.74907227 2.70507812 98.74414062 C1.47337891 98.73576172 0.24167969 98.72738281 -1.02734375 98.71875 C-2.88069336 98.71198242 -2.88069336 98.71198242 -4.77148438 98.70507812 C-7.83598492 98.69324608 -10.90039096 98.67676173 -13.96484375 98.65625 C-13.97070999 97.87443863 -13.97657623 97.09262726 -13.98262024 96.28712463 C-14.04073592 88.88749747 -14.11291906 81.48819981 -14.20055866 74.08886814 C-14.24511882 70.28558571 -14.28440558 66.48240686 -14.3112793 62.67895508 C-14.33745683 59.00235051 -14.37795858 55.32614765 -14.42803001 51.64979362 C-14.4446018 50.25336678 -14.456176 48.85687061 -14.46245766 47.46035957 C-14.51124227 37.60383547 -14.59748641 28.02360734 -21.96484375 20.65625 C-27.73715078 17.33024428 -33.70865332 17.06508784 -40.08984375 18.71875 C-45.85195628 20.71401567 -50.08425836 23.50856287 -53.24609375 28.80078125 C-57.35889765 37.42298086 -57.14928347 46.20272561 -57.28125 55.58984375 C-57.3020311 56.82291763 -57.32281219 58.05599152 -57.34422302 59.32643127 C-57.40938398 63.24881648 -57.4684476 67.17126622 -57.52734375 71.09375 C-57.57006627 73.75978101 -57.61417607 76.42578683 -57.65820312 79.09179688 C-57.76577711 85.61321619 -57.86509971 92.13468745 -57.96484375 98.65625 C-66.54484375 98.65625 -75.12484375 98.65625 -83.96484375 98.65625 C-83.96484375 64.33625 -83.96484375 30.01625 -83.96484375 -5.34375 C-76.04484375 -5.34375 -68.12484375 -5.34375 -59.96484375 -5.34375 C-58.74790499 -2.90987247 -58.64524479 -0.92536154 -58.40234375 1.78125 C-58.27666016 3.14636719 -58.27666016 3.14636719 -58.1484375 4.5390625 C-58.08785156 5.23773438 -58.02726563 5.93640625 -57.96484375 6.65625 C-57.57554687 6.20894531 -57.18625 5.76164062 -56.78515625 5.30078125 C-42.44266575 -10.19836171 -17.04402429 -12.26448308 0 0 Z " fill="#202532" transform="translate(850.96484375,70.34375)"/>
<path d="M0 0 C7.33546026 5.92940621 13.05859663 12.92290907 16 22 C16.125 24.1796875 16.125 24.1796875 15 26 C12.38891506 27.14442016 10.03300517 27.98372839 7.3125 28.75 C6.60416016 28.97042969 5.89582031 29.19085938 5.16601562 29.41796875 C1.07708121 30.63369994 -2.71531871 31.64674435 -7 31 C-8.8359375 29.171875 -8.8359375 29.171875 -10.375 26.75 C-14.28414462 21.30970245 -17.85069316 18.91298377 -24.37890625 17.4765625 C-32.21294646 16.37317656 -39.68577595 17.06213372 -46.3125 21.625 C-52.32173794 26.65090809 -55.55469443 32.50285025 -56.77734375 40.23046875 C-57.67171733 51.3552208 -55.74391187 60.282978 -48.5625 68.9375 C-41.24305088 74.82876393 -34.09893614 75.64198735 -25 75 C-17.3329077 73.78876899 -13.5173205 70.09721238 -9 64 C-8.44054687 63.25621094 -7.88109375 62.51242188 -7.3046875 61.74609375 C-6.87414062 61.16988281 -6.44359375 60.59367187 -6 60 C-2.9342772 60.58850728 0.12677571 61.19856916 3.1875 61.8125 C4.05181641 61.97814453 4.91613281 62.14378906 5.80664062 62.31445312 C10.41538003 63.25032741 14.11356123 64.19178648 18 67 C13.92034846 78.7109997 7.29369514 88.33331969 -3.7421875 94.54296875 C-17.89203488 101.22592991 -35.24543692 102.73498767 -50.375 98.3125 C-52.27216354 97.59795153 -54.15119015 96.83169175 -56 96 C-57.21816406 95.45666016 -57.21816406 95.45666016 -58.4609375 94.90234375 C-71.52414492 88.32615571 -78.56555904 77.97057593 -83.23828125 64.4453125 C-87.82251751 49.72873867 -86.13371434 32.14978584 -79.75 18.28515625 C-72.63470567 5.16633234 -61.46245189 -2.65265599 -47.375 -6.875 C-31.90929086 -10.28029375 -13.35939786 -9.00730877 0 0 Z " fill="#202632" transform="translate(276,71)"/>
<path d="M0 0 C0.77251602 0.00359528 1.54503204 0.00719055 2.34095764 0.01089478 C3.55549622 0.01067574 3.55549622 0.01067574 4.79457092 0.01045227 C7.48380671 0.01115163 10.17297412 0.01894507 12.86219788 0.02676392 C14.72164878 0.02862802 16.58110018 0.03005196 18.44055176 0.03105164 C23.34458258 0.03487746 28.24858398 0.04470829 33.15260315 0.05575562 C38.15280255 0.06596836 43.15300669 0.07054896 48.1532135 0.07559204 C57.97158583 0.0863305 67.78993629 0.10340769 77.60829163 0.12442017 C79.28906866 3.48597424 79.28340496 6.51434811 78.60829163 10.12442017 C73.87482164 20.15888834 66.88299694 29.37645928 60.70735168 38.5604248 C57.80258665 42.88034628 54.90907532 47.20779577 52.01454163 51.53457642 C51.17232559 52.7926284 51.17232559 52.7926284 50.31309509 54.07609558 C44.32057159 63.03440343 38.44790755 72.0655288 32.60829163 81.12442017 C47.78829163 81.12442017 62.96829163 81.12442017 78.60829163 81.12442017 C78.60829163 88.71442017 78.60829163 96.30442017 78.60829163 104.12442017 C67.41255559 104.14697053 56.21683453 104.16533487 45.02108097 104.17623234 C39.82301048 104.18146133 34.62495626 104.18855926 29.42689514 104.19985962 C24.41486894 104.21068793 19.40285845 104.21669688 14.39082146 104.21929741 C12.4741688 104.22115176 10.55751705 104.22477256 8.64087105 104.23015022 C5.9660109 104.23735991 3.29121649 104.23841114 0.61634827 104.23794556 C-0.18421997 104.24154083 -0.98478821 104.24513611 -1.80961609 104.24884033 C-7.27765621 104.23847233 -7.27765621 104.23847233 -8.39170837 103.12442017 C-9.69494202 97.52266707 -8.72895093 93.082372 -5.78094482 88.17843628 C-3.72032593 84.98603776 -1.56581179 81.86520168 0.60829163 78.74942017 C1.54441096 77.37206174 2.47820411 75.99311979 3.4098053 74.61270142 C5.39930262 71.67063859 7.4007619 68.73723485 9.41053772 65.80899048 C12.76598729 60.90900589 16.06103987 55.96990879 19.34657288 51.02285767 C19.89755646 50.19331573 20.44854004 49.3637738 21.01622009 48.50909424 C22.111406 46.85985383 23.20646975 45.2105323 24.30140686 43.56112671 C26.89323456 39.6611743 29.49452078 35.76755547 32.09657288 31.87442017 C32.55494034 31.188508 33.0133078 30.50259583 33.48556519 29.79589844 C34.52632702 28.23864078 35.56728432 26.68151374 36.60829163 25.12442017 C35.34122375 25.09936401 34.07415588 25.07430786 32.76869202 25.04849243 C28.08531384 24.9546002 23.40209032 24.85433582 18.71888733 24.75210571 C16.68865059 24.70868775 14.6583757 24.6670179 12.62806702 24.62710571 C9.71641012 24.5695687 6.80494649 24.50582739 3.89344788 24.44082642 C2.97991043 24.42411392 2.06637299 24.40740143 1.12515259 24.3901825 C-5.27783667 24.23829187 -5.27783667 24.23829187 -6.39170837 23.12442017 C-6.49087408 21.50184472 -6.52250614 19.87502185 -6.52452087 18.24942017 C-6.52580994 17.26457642 -6.527099 16.27973267 -6.52842712 15.26504517 C-6.52455994 14.22863892 -6.52069275 13.19223267 -6.51670837 12.12442017 C-6.52250916 10.56981079 -6.52250916 10.56981079 -6.52842712 8.98379517 C-6.52713806 7.99895142 -6.525849 7.01410767 -6.52452087 5.99942017 C-6.52339294 5.08934204 -6.52226501 4.17926392 -6.52110291 3.24160767 C-6.26165281 -1.00358325 -3.63275403 0.00713658 0 0 Z " fill="#202632" transform="translate(625.3917083740234,64.87557983398438)"/>
<path d="M0 0 C1.28016998 -0.00890762 2.56033997 -0.01781525 3.87930298 -0.0269928 C7.38373863 -0.05004087 10.88708294 -0.03537606 14.39148331 -0.01252341 C18.06202968 0.00641574 21.73250387 -0.00476936 25.40307617 -0.01142883 C31.566745 -0.01776626 37.72997743 0.00048354 43.89355469 0.03320312 C51.01530329 0.07069704 58.13622524 0.0689184 65.25801754 0.04616195 C72.1143864 0.02519924 78.9704503 0.03249451 85.82681274 0.0524807 C88.7422458 0.0604587 91.65742034 0.05848505 94.57284546 0.04845619 C98.64538916 0.03592781 102.71663328 0.06467431 106.7890625 0.09765625 C107.99752838 0.08910614 109.20599426 0.08055603 110.45108032 0.07174683 C118.60726374 0.18593236 118.60726374 0.18593236 122.61987305 3.11442566 C125.9833938 8.12954314 125.61122576 12.74870077 125.64453125 18.57299805 C125.67546875 19.90814453 125.67546875 19.90814453 125.70703125 21.27026367 C125.73812906 26.51413239 125.41387203 30.26675956 122.39453125 34.76049805 C119.05921687 36.98404096 117.99214989 37.01571314 114.10087585 37.03465271 C113.00316864 37.04462784 111.90546143 37.05460297 110.77449036 37.06488037 C109.56975571 37.06554504 108.36502106 37.06620972 107.1237793 37.06689453 C105.85526123 37.07521805 104.58674316 37.08354156 103.27978516 37.09211731 C99.79825721 37.11407334 96.31681709 37.12286285 92.83522773 37.12794375 C90.65937047 37.13158657 88.48353624 37.13782629 86.30768776 37.14494514 C78.71463637 37.16944521 71.12165334 37.18249236 63.52856445 37.18603516 C56.45466461 37.18966907 49.38119902 37.21955216 42.30743188 37.26143974 C36.23172893 37.2961538 30.15616978 37.3115838 24.08036834 37.31228119 C20.45269122 37.31307376 16.82545621 37.32180174 13.1978817 37.35027885 C9.14943282 37.3813485 5.10201549 37.37239476 1.0534668 37.35986328 C-0.74452614 37.38211472 -0.74452614 37.38211472 -2.57884216 37.40481567 C-11.63768654 37.32485728 -11.63768654 37.32485728 -15.34912109 34.39599609 C-17.96843836 31.33653603 -18.36555637 29.99469584 -18.3671875 26.0144043 C-18.37202148 24.38728516 -18.37202148 24.38728516 -18.37695312 22.72729492 C-18.34923828 21.60387695 -18.32152344 20.48045898 -18.29296875 19.32299805 C-18.30779297 18.20344727 -18.32261719 17.08389648 -18.33789062 15.93041992 C-18.24131237 6.35781023 -18.24131237 6.35781023 -14.46775532 2.04509449 C-10.30652273 -0.82530402 -4.85895704 -0.05515054 0 0 Z " fill="#06B5D4" transform="translate(17.60546875,132.239501953125)"/>
<path d="M0 0 C1.28016998 -0.00890762 2.56033997 -0.01781525 3.87930298 -0.0269928 C7.38373863 -0.05004087 10.88708294 -0.03537606 14.39148331 -0.01252341 C18.06202968 0.00641574 21.73250387 -0.00476936 25.40307617 -0.01142883 C31.566745 -0.01776626 37.72997743 0.00048354 43.89355469 0.03320312 C51.01530329 0.07069704 58.13622524 0.0689184 65.25801754 0.04616195 C72.1143864 0.02519924 78.9704503 0.03249451 85.82681274 0.0524807 C88.7422458 0.0604587 91.65742034 0.05848505 94.57284546 0.04845619 C98.64538916 0.03592781 102.71663328 0.06467431 106.7890625 0.09765625 C107.99752838 0.08910614 109.20599426 0.08055603 110.45108032 0.07174683 C118.60726374 0.18593236 118.60726374 0.18593236 122.61987305 3.11442566 C125.9833938 8.12954314 125.61122576 12.74870077 125.64453125 18.57299805 C125.67546875 19.90814453 125.67546875 19.90814453 125.70703125 21.27026367 C125.73812906 26.51413239 125.41387203 30.26675956 122.39453125 34.76049805 C119.05921687 36.98404096 117.99214989 37.01571314 114.10087585 37.03465271 C113.00316864 37.04462784 111.90546143 37.05460297 110.77449036 37.06488037 C109.56975571 37.06554504 108.36502106 37.06620972 107.1237793 37.06689453 C105.85526123 37.07521805 104.58674316 37.08354156 103.27978516 37.09211731 C99.79825721 37.11407334 96.31681709 37.12286285 92.83522773 37.12794375 C90.65937047 37.13158657 88.48353624 37.13782629 86.30768776 37.14494514 C78.71463637 37.16944521 71.12165334 37.18249236 63.52856445 37.18603516 C56.45466461 37.18966907 49.38119902 37.21955216 42.30743188 37.26143974 C36.23172893 37.2961538 30.15616978 37.3115838 24.08036834 37.31228119 C20.45269122 37.31307376 16.82545621 37.32180174 13.1978817 37.35027885 C9.14943282 37.3813485 5.10201549 37.37239476 1.0534668 37.35986328 C-0.74452614 37.38211472 -0.74452614 37.38211472 -2.57884216 37.40481567 C-11.63768654 37.32485728 -11.63768654 37.32485728 -15.34912109 34.39599609 C-17.96843836 31.33653603 -18.36555637 29.99469584 -18.3671875 26.0144043 C-18.37202148 24.38728516 -18.37202148 24.38728516 -18.37695312 22.72729492 C-18.34923828 21.60387695 -18.32152344 20.48045898 -18.29296875 19.32299805 C-18.30779297 18.20344727 -18.32261719 17.08389648 -18.33789062 15.93041992 C-18.24131237 6.35781023 -18.24131237 6.35781023 -14.46775532 2.04509449 C-10.30652273 -0.82530402 -4.85895704 -0.05515054 0 0 Z " fill="#DFDFE0" transform="translate(17.60546875,25.239501953125)"/>
<path d="M0 0 C1.28016998 -0.00890762 2.56033997 -0.01781525 3.87930298 -0.0269928 C7.38373863 -0.05004087 10.88708294 -0.03537606 14.39148331 -0.01252341 C18.06202968 0.00641574 21.73250387 -0.00476936 25.40307617 -0.01142883 C31.566745 -0.01776626 37.72997743 0.00048354 43.89355469 0.03320312 C51.01530329 0.07069704 58.13622524 0.0689184 65.25801754 0.04616195 C72.1143864 0.02519924 78.9704503 0.03249451 85.82681274 0.0524807 C88.7422458 0.0604587 91.65742034 0.05848505 94.57284546 0.04845619 C98.64538916 0.03592781 102.71663328 0.06467431 106.7890625 0.09765625 C107.99752838 0.08910614 109.20599426 0.08055603 110.45108032 0.07174683 C118.60726374 0.18593236 118.60726374 0.18593236 122.61987305 3.11442566 C125.90193872 8.008091 125.61024734 12.39472602 125.64453125 18.07299805 C125.67546875 19.33660156 125.67546875 19.33660156 125.70703125 20.62573242 C125.73909998 25.75272056 125.31754686 29.35548621 122.39453125 33.76049805 C119.05921687 35.98404096 117.99214989 36.01571314 114.10087585 36.03465271 C113.00316864 36.04462784 111.90546143 36.05460297 110.77449036 36.06488037 C109.56975571 36.06554504 108.36502106 36.06620972 107.1237793 36.06689453 C105.85526123 36.07521805 104.58674316 36.08354156 103.27978516 36.09211731 C99.79825721 36.11407334 96.31681709 36.12286285 92.83522773 36.12794375 C90.65937047 36.13158657 88.48353624 36.13782629 86.30768776 36.14494514 C78.71463637 36.16944521 71.12165334 36.18249236 63.52856445 36.18603516 C56.45466461 36.18966907 49.38119902 36.21955216 42.30743188 36.26143974 C36.23172893 36.2961538 30.15616978 36.3115838 24.08036834 36.31228119 C20.45269122 36.31307376 16.82545621 36.32180174 13.1978817 36.35027885 C9.14943282 36.3813485 5.10201549 36.37239476 1.0534668 36.35986328 C-0.74452614 36.38211472 -0.74452614 36.38211472 -2.57884216 36.40481567 C-11.63753416 36.32485863 -11.63753416 36.32485863 -15.34912109 33.39025879 C-17.91975462 30.3941996 -18.36551973 29.12940887 -18.3671875 25.2331543 C-18.37041016 24.19352539 -18.37363281 23.15389648 -18.37695312 22.08276367 C-18.34923828 21.00704102 -18.32152344 19.93131836 -18.29296875 18.82299805 C-18.31520508 17.21521484 -18.31520508 17.21521484 -18.33789062 15.57495117 C-18.28086688 10.1576956 -18.21349888 6.33604282 -14.46775532 2.04832172 C-10.30915403 -0.82746834 -4.85918278 -0.0551531 0 0 Z " fill="#9FD9E2" transform="translate(17.60546875,80.239501953125)"/>
<path d="M0 0 C2.56988681 2.56988681 2.25706775 3.58910053 2.265625 7.15625 C2.26949219 8.68958984 2.26949219 8.68958984 2.2734375 10.25390625 C2.26570312 11.32511719 2.25796875 12.39632812 2.25 13.5 C2.26160156 15.10681641 2.26160156 15.10681641 2.2734375 16.74609375 C2.27085937 17.76832031 2.26828125 18.79054688 2.265625 19.84375 C2.26336914 20.78412109 2.26111328 21.72449219 2.25878906 22.69335938 C2 25 2 25 0 27 C-2.69110854 27.04131088 -5.31549432 26.98824004 -8 26.875 C-16.58876228 26.69914861 -23.01828434 27.79731566 -29.875 33.3125 C-34.78954057 39.52794836 -37.08460396 44.8454031 -37.20532227 52.77832031 C-37.22526749 53.9392218 -37.24521271 55.10012329 -37.26576233 56.29620361 C-37.28247482 57.54423767 -37.29918732 58.79227173 -37.31640625 60.078125 C-37.33718735 61.35983582 -37.35796844 62.64154663 -37.37937927 63.96209717 C-37.43444747 67.36176272 -37.48392364 70.76148738 -37.53222656 74.16125488 C-37.58255332 77.63359814 -37.63818093 81.10585605 -37.69335938 84.578125 C-37.80075422 91.38534261 -37.90224027 98.19263739 -38 105 C-42.31248609 105.02886537 -46.62494762 105.04675255 -50.9375 105.0625 C-52.16919922 105.07087891 -53.40089844 105.07925781 -54.66992188 105.08789062 C-55.83974609 105.09111328 -57.00957031 105.09433594 -58.21484375 105.09765625 C-59.84087524 105.10551147 -59.84087524 105.10551147 -61.49975586 105.11352539 C-64 105 -64 105 -65 104 C-65.10069779 100.83923656 -65.13614023 97.70027973 -65.12939453 94.5390625 C-65.13114685 93.54565857 -65.13289917 92.55225464 -65.13470459 91.52874756 C-65.13912511 88.22748088 -65.13618441 84.92626727 -65.1328125 81.625 C-65.13348548 79.34195953 -65.13445546 77.05891913 -65.13571167 74.77587891 C-65.13718891 69.98404256 -65.13503323 65.19222481 -65.13037109 60.40039062 C-65.1246738 54.24283365 -65.12795266 48.08532026 -65.13394356 41.92776489 C-65.13754845 37.21134103 -65.13641091 32.49492759 -65.13381577 27.77850342 C-65.1331463 25.5073852 -65.1339756 23.23626606 -65.13629532 20.96514893 C-65.13882067 17.79705278 -65.1349829 14.62902828 -65.12939453 11.4609375 C-65.13141876 10.51232849 -65.13344299 9.56371948 -65.13552856 8.58636475 C-65.11426224 2.11426224 -65.11426224 2.11426224 -64 1 C-62.29227642 0.91286169 -60.58101351 0.89299993 -58.87109375 0.90234375 C-57.31938477 0.90717773 -57.31938477 0.90717773 -55.73632812 0.91210938 C-54.64771484 0.92048828 -53.55910156 0.92886719 -52.4375 0.9375 C-50.7987793 0.94426758 -50.7987793 0.94426758 -49.12695312 0.95117188 C-46.41791505 0.96300174 -43.70898401 0.97948457 -41 1 C-39.61923249 5.0075935 -38.6001884 8.79868118 -38 13 C-37.48953125 12.48050781 -36.9790625 11.96101563 -36.453125 11.42578125 C-25.6630956 1.07577078 -14.54592807 -1.54570824 0 0 Z " fill="#202632" transform="translate(610,64)"/>
<path d="M0 0 C4.14581887 -0.02886751 8.29161216 -0.04675327 12.4375 -0.0625 C14.21350586 -0.07506836 14.21350586 -0.07506836 16.02539062 -0.08789062 C17.15009766 -0.09111328 18.27480469 -0.09433594 19.43359375 -0.09765625 C20.47572021 -0.10289307 21.51784668 -0.10812988 22.59155273 -0.11352539 C25 0 25 0 26 1 C26.09527037 2.34072817 26.1218877 3.68642503 26.12025452 5.03053284 C26.12162918 5.89856537 26.12300385 6.7665979 26.12442017 7.66093445 C26.12082489 8.62046524 26.11722961 9.57999603 26.11352539 10.56860352 C26.11367142 11.57336731 26.11381744 12.5781311 26.1139679 13.61334229 C26.1132683 16.95188517 26.10547374 20.29037305 26.09765625 23.62890625 C26.09579224 25.93676218 26.09436826 28.24461851 26.09336853 30.55247498 C26.08954204 36.64017826 26.07971065 42.72785786 26.06866455 48.81555176 C26.05845323 55.02221354 26.05387151 61.22887913 26.04882812 67.43554688 C26.0380885 79.62370835 26.02101052 91.81185221 26 104 C21.68751391 104.02886537 17.37505238 104.04675255 13.0625 104.0625 C11.83080078 104.07087891 10.59910156 104.07925781 9.33007812 104.08789062 C8.16025391 104.09111328 6.99042969 104.09433594 5.78515625 104.09765625 C4.15912476 104.10551147 4.15912476 104.10551147 2.50024414 104.11352539 C0 104 0 104 -1 103 C-1.10068604 99.87504265 -1.13614152 96.77214333 -1.12939453 93.64672852 C-1.13114685 92.66468445 -1.13289917 91.68264038 -1.13470459 90.6708374 C-1.13912547 87.40684266 -1.13618406 84.1429016 -1.1328125 80.87890625 C-1.13348553 78.62068166 -1.13445554 76.36245713 -1.13571167 74.10423279 C-1.13718901 69.36367099 -1.13503314 64.62312798 -1.13037109 59.88256836 C-1.12467704 53.79461194 -1.12795054 47.70669964 -1.13394356 41.61874485 C-1.13755098 36.95289272 -1.13640969 32.2870511 -1.13381577 27.62119865 C-1.13314683 25.37602674 -1.13397376 23.13085388 -1.13629532 20.88568306 C-1.13882443 17.75131819 -1.13497739 14.61702549 -1.12939453 11.48266602 C-1.13141876 10.54700302 -1.13344299 9.61134003 -1.13552856 8.64732361 C-1.13270874 7.79618988 -1.12988892 6.94505615 -1.12698364 6.06813049 C-1.12660662 5.32646417 -1.12622959 4.58479784 -1.12584114 3.82065678 C-1 2 -1 2 0 0 Z " fill="#202631" transform="translate(720,65)"/>
<path d="M0 0 C3.87572983 2.05820342 6.33727808 4.17029639 7.82421875 8.28125 C8.4784852 13.62987819 8.49957132 17.88051875 6.13671875 22.78125 C3.05393883 26.11398505 0.47280524 28.0349605 -4.078125 28.71484375 C-10.25653978 28.72279538 -14.41593741 28.67495201 -19.17578125 24.28125 C-22.07806543 20.97865076 -23.09137178 18.39967552 -23.42578125 13.96875 C-23.06294719 8.61694763 -21.59472074 5.56175637 -17.61328125 1.96875 C-12.39657873 -1.64281328 -6.06426901 -2.00327737 0 0 Z " fill="#202632" transform="translate(740.17578125,18.71875)"/>
</svg>
