<?xml version="1.0" encoding="UTF-8" standalone="no"?>
<!DOCTYPE svg PUBLIC "-//W3C//DTD SVG 1.1//EN" "http://www.w3.org/Graphics/SVG/1.1/DTD/svg11.dtd">
<svg width="1440.00" height="960.00" viewBox="0.00 0.00 6000.00 4000.00" xmlns="http://www.w3.org/2000/svg" xmlns:xlink="http://www.w3.org/1999/xlink">
<g stroke-linecap="round" id="사이드멤버(12)">
<path d="M3514.72,1425.22 Q3551.19,1425.23 3587.66,1425.23 Q3600.16,1425.23 3600.17,1437.31 Q3600.18,1575.24 3600.19,1713.18 Q3600.19,1725.26 3587.69,1725.26 Q3551.22,1725.25 3514.75,1725.25 Q3502.25,1725.25 3502.25,1713.17 Q3502.24,1575.24 3502.22,1437.30 Q3502.22,1425.22 3514.72,1425.22 Z" fill="none" stroke="rgb(0, 0, 0)" stroke-width="7.00" stroke-opacity="1.00" stroke-linejoin="round"/>
<path d="M3834.63,1425.63 Q3798.16,1425.54 3761.69,1425.45 Q3749.19,1425.42 3749.15,1437.50 Q3748.79,1575.44 3748.42,1713.37 Q3748.39,1725.45 3760.89,1725.48 Q3797.36,1725.57 3833.83,1725.66 Q3846.33,1725.69 3846.36,1713.61 Q3846.73,1575.68 3847.10,1437.74 Q3847.13,1425.67 3834.63,1425.63 Z" fill="none" stroke="rgb(0, 0, 0)" stroke-width="7.00" stroke-opacity="1.00" stroke-linejoin="round"/>
</g>
</svg>
