<?xml version="1.0" encoding="UTF-8" standalone="no"?>
<!DOCTYPE svg PUBLIC "-//W3C//DTD SVG 1.1//EN" "http://www.w3.org/Graphics/SVG/1.1/DTD/svg11.dtd">
<svg width="1440.00" height="960.00" viewBox="0.00 0.00 6000.00 4000.00" xmlns="http://www.w3.org/2000/svg" xmlns:xlink="http://www.w3.org/1999/xlink">
<g stroke-linecap="round" id="인사이드패널(11)">
<path d="M3391.06,1425.15 Q3424.50,1425.15 3457.93,1425.15 Q3474.43,1425.15 3474.43,1437.65 Q3474.43,1512.68 3474.43,1587.71 Q3474.43,1600.21 3457.93,1600.21 Q3424.50,1600.21 3391.06,1600.21 Q3374.57,1600.21 3374.57,1587.71 Q3374.57,1512.68 3374.57,1437.65 Q3374.57,1425.15 3391.06,1425.15 Z" fill="none" stroke="rgb(0, 0, 0)" stroke-width="7.00" stroke-opacity="1.00" stroke-linejoin="round"/>
<path d="M3959.20,1425.89 Q3925.56,1425.83 3891.92,1425.76 Q3875.32,1425.73 3875.27,1438.23 Q3875.02,1513.26 3874.76,1588.29 Q3874.72,1600.79 3891.32,1600.82 Q3924.96,1600.88 3958.60,1600.95 Q3975.20,1600.98 3975.24,1588.48 Q3975.50,1513.45 3975.75,1438.43 Q3975.80,1425.93 3959.20,1425.89 Z" fill="none" stroke="rgb(0, 0, 0)" stroke-width="7.00" stroke-opacity="1.00" stroke-linejoin="round"/>
<path d="M3411.23,2599.40 Q3448.34,2599.40 3485.44,2599.40 Q3497.94,2599.40 3497.94,2611.01 Q3497.94,2674.78 3497.94,2738.55 Q3497.94,2750.15 3485.44,2750.15 Q3448.34,2750.15 3411.23,2750.15 Q3398.73,2750.15 3398.73,2738.55 Q3398.73,2674.78 3398.73,2611.01 Q3398.73,2599.40 3411.23,2599.40 Z" fill="none" stroke="rgb(0, 0, 0)" stroke-width="7.00" stroke-opacity="1.00" stroke-linejoin="round"/>
<path d="M3865.40,2600.08 Q3901.22,2600.08 3937.05,2600.08 Q3949.55,2600.08 3949.55,2611.82 Q3949.55,2675.12 3949.55,2738.41 Q3949.55,2750.15 3937.05,2750.15 Q3901.22,2750.15 3865.40,2750.15 Q3852.90,2750.15 3852.90,2738.41 Q3852.90,2675.12 3852.90,2611.82 Q3852.90,2600.08 3865.40,2600.08 Z" fill="none" stroke="rgb(0, 0, 0)" stroke-width="7.00" stroke-opacity="1.00" stroke-linejoin="round"/>
</g>
</svg>
