<?xml version="1.0" encoding="UTF-8" standalone="no"?>
<!DOCTYPE svg PUBLIC "-//W3C//DTD SVG 1.1//EN" "http://www.w3.org/Graphics/SVG/1.1/DTD/svg11.dtd">
<svg width="1440.00" height="960.00" viewBox="0.00 0.00 6000.00 4000.00" xmlns="http://www.w3.org/2000/svg" xmlns:xlink="http://www.w3.org/1999/xlink">
<g stroke-linecap="round" id="패키지트레이">
<path d="M3364.60,2864.97 Q3417.55,2966.11 3674.57,2965.44" fill="none" stroke="rgb(0, 0, 0)" stroke-width="7.00" stroke-opacity="1.00" stroke-linejoin="round"/>
<path d="M3981.40,2871.44 Q3981.21,2872.12 3981.02,2872.81 Q3922.39,2966.05 3675.61,2965.44" fill="none" stroke="rgb(0, 0, 0)" stroke-width="7.00" stroke-opacity="1.00" stroke-linejoin="round"/>
<path d="M3364.67,2864.47 Q3362.13,2855.23 3361.71,2833.53" fill="none" stroke="rgb(0, 0, 0)" stroke-width="7.00" stroke-opacity="1.00" stroke-linejoin="round"/>
<path d="M3361.77,2823.79 Q3361.44,2820.13 3361.12,2816.47" fill="none" stroke="rgb(0, 0, 0)" stroke-width="7.00" stroke-opacity="1.00" stroke-linejoin="round"/>
<path d="M3336.74,1733.84 Q3336.34,1733.62 3335.94,1733.40 Q3319.27,1738.31 3299.71,1744.92" fill="none" stroke="rgb(0, 0, 0)" stroke-width="7.00" stroke-opacity="1.00" stroke-linejoin="round"/>
<path d="M4013.12,1732.40 Q4029.21,1737.28 4047.88,1743.97" fill="none" stroke="rgb(0, 0, 0)" stroke-width="7.00" stroke-opacity="1.00" stroke-linejoin="round"/>
<path d="M3301.84,1743.97 Q3279.06,1767.03 3276.94,1789.91" fill="none" stroke="rgb(0, 0, 0)" stroke-width="7.00" stroke-opacity="1.00" stroke-linejoin="round"/>
<path d="M4046.05,1742.80 Q4068.56,1764.91 4070.81,1787.77" fill="none" stroke="rgb(0, 0, 0)" stroke-width="7.00" stroke-opacity="1.00" stroke-linejoin="round"/>
<path d="M3276.62,1789.67 Q3306.07,1786.66 3332.72,1778.19" fill="none" stroke="rgb(0, 0, 0)" stroke-width="7.00" stroke-opacity="1.00" stroke-linejoin="round"/>
<path d="M3344.16,1769.86 Q3344.20,1769.68 3344.25,1769.50" fill="none" stroke="rgb(0, 0, 0)" stroke-width="7.00" stroke-opacity="1.00" stroke-linejoin="round"/>
<path d="M4071.13,1787.53 Q4041.48,1784.67 4014.64,1776.25" fill="none" stroke="rgb(0, 0, 0)" stroke-width="7.00" stroke-opacity="1.00" stroke-linejoin="round"/>
<path d="M3368.09,2869.18 Q3338.86,2812.43 3333.79,1779.17" fill="none" stroke="rgb(0, 0, 0)" stroke-width="7.00" stroke-opacity="1.00" stroke-linejoin="round"/>
<path d="M3992.96,2832.64 Q4014.32,2666.47 4013.90,1777.34" fill="none" stroke="rgb(0, 0, 0)" stroke-width="7.00" stroke-opacity="1.00" stroke-linejoin="round"/>
<path d="M3338.76,1728.93 Q3338.59,1729.77 3338.42,1730.61" fill="none" stroke="rgb(0, 0, 0)" stroke-width="7.00" stroke-opacity="1.00" stroke-linejoin="round"/>
<path d="M3336.92,1732.63 Q3335.69,1469.51 3336.98,1419.01 Q3336.99,1418.56 3336.97,1417.68 Q3336.96,1416.79 3337.43,1412.93 Q3372.87,1239.24 3674.57,1232.97 Q3977.28,1239.90 4012.35,1413.66 Q4012.81,1417.53 4012.79,1418.41 Q4012.77,1419.29 4012.78,1419.74 Q4013.96,1470.24 4012.43,1732.25" fill="none" stroke="rgb(0, 0, 0)" stroke-width="7.00" stroke-opacity="1.00" stroke-linejoin="round"/>
<path d="M3992.53,2836.80 Q3987.93,2856.60 3981.89,2871.82" fill="none" stroke="rgb(0, 0, 0)" stroke-width="7.00" stroke-opacity="1.00" stroke-linejoin="round"/>
</g>
</svg>
