<?xml version="1.0" encoding="UTF-8" standalone="no"?>
<!DOCTYPE svg PUBLIC "-//W3C//DTD SVG 1.1//EN" "http://www.w3.org/Graphics/SVG/1.1/DTD/svg11.dtd">
<svg width="1440.00" height="960.00" viewBox="0.00 0.00 6000.00 4000.00" xmlns="http://www.w3.org/2000/svg" xmlns:xlink="http://www.w3.org/1999/xlink">
<g stroke-linecap="round" id="휠하우스(13)">
<path d="M3389.88,1612.38 Q3423.48,1612.38 3457.09,1612.39 Q3474.32,1612.40 3474.33,1623.82 Q3474.34,1668.68 3474.36,1713.54 Q3474.36,1724.95 3457.13,1724.95 Q3423.52,1724.94 3389.91,1724.93 Q3372.68,1724.92 3372.67,1713.51 Q3372.66,1668.65 3372.64,1623.79 Q3372.64,1612.37 3389.88,1612.38 Z" fill="none" stroke="rgb(0, 0, 0)" stroke-width="7.00" stroke-opacity="1.00" stroke-linejoin="round"/>
<path d="M3958.99,1613.11 Q3925.39,1613.03 3891.78,1612.95 Q3874.54,1612.91 3874.51,1624.33 Q3874.38,1669.19 3874.25,1714.05 Q3874.22,1725.47 3891.46,1725.51 Q3925.06,1725.58 3958.67,1725.66 Q3975.90,1725.70 3975.94,1714.28 Q3976.07,1669.42 3976.20,1624.56 Q3976.23,1613.15 3958.99,1613.11 Z" fill="none" stroke="rgb(0, 0, 0)" stroke-width="7.00" stroke-opacity="1.00" stroke-linejoin="round"/>
<path d="M3387.74,2450.21 Q3424.39,2450.21 3461.05,2450.21 Q3477.09,2450.21 3477.09,2462.71 Q3477.09,2518.34 3477.09,2573.97 Q3477.09,2586.47 3461.05,2586.47 Q3424.39,2586.47 3387.74,2586.47 Q3371.69,2586.47 3371.69,2573.97 Q3371.69,2518.34 3371.69,2462.71 Q3371.69,2450.21 3387.74,2450.21 Z" fill="none" stroke="rgb(0, 0, 0)" stroke-width="7.00" stroke-opacity="1.00" stroke-linejoin="round"/>
<path d="M3958.98,2450.95 Q3922.32,2450.85 3885.67,2450.76 Q3869.62,2450.72 3869.59,2463.22 Q3869.45,2518.85 3869.31,2574.48 Q3869.27,2586.98 3885.32,2587.02 Q3921.97,2587.11 3958.63,2587.21 Q3974.68,2587.25 3974.71,2574.75 Q3974.85,2519.12 3974.99,2463.49 Q3975.03,2450.99 3958.98,2450.95 Z" fill="none" stroke="rgb(0, 0, 0)" stroke-width="7.00" stroke-opacity="1.00" stroke-linejoin="round"/>
</g>
</svg>
