<?xml version="1.0" encoding="UTF-8" standalone="no"?>
<!DOCTYPE svg PUBLIC "-//W3C//DTD SVG 1.1//EN" "http://www.w3.org/Graphics/SVG/1.1/DTD/svg11.dtd">
<svg width="1440.00" height="960.00" viewBox="0.00 0.00 6000.00 4000.00" xmlns="http://www.w3.org/2000/svg" xmlns:xlink="http://www.w3.org/1999/xlink">
<g stroke-linecap="round" transform="translate(1434.00, 4.00)" id="범퍼(2)_복사">
<path d="M1738.94,1337.64 Q1618.52,1325.78 1571.55,1393.93 Q1499.15,1499.87 1564.10,1596.15 Q1566.37,1599.10 1568.65,1602.04 Q1605.94,1648.25 1681.85,1655.52 Q1682.14,1675.50 1682.43,1695.48 Q1507.73,1674.98 1399.24,1689.21 Q1396.15,1687.37 1393.06,1685.52 Q1385.61,1679.06 1378.16,1672.59 Q1376.66,1671.10 1375.17,1669.61 Q1391.35,1469.57 1465.89,1273.11 Q1465.95,1272.72 1466.23,1272.16 Q1466.50,1271.60 1468.46,1269.04 Q1470.43,1266.47 1470.43,1266.47 Q1485.18,1249.67 1520.87,1235.71 Q1522.70,1234.83 1524.53,1233.96 Q1585.20,1214.28 1682.74,1216.73 Q1725.35,1221.62 1737.12,1258.32 Q1736.93,1260.85 1737.95,1263.80 Q1741.07,1302.28 1738.94,1337.64 Z" fill="none" stroke="rgb(0, 0, 0)" stroke-width="7.00" stroke-opacity="1.00" stroke-linejoin="round"/>
<path d="M1534.20,1232.63 Q1531.71,1280.42 1529.22,1328.22 Q1529.00,1332.62 1528.85,1335.01 Q1528.71,1337.39 1528.63,1337.75 Q1526.45,1350.06 1493.06,1359.73 Q1492.26,1359.97 1489.28,1356.59 Q1477.85,1333.20 1509.47,1239.51" fill="none" stroke="rgb(0, 0, 0)" stroke-width="7.00" stroke-opacity="1.00" stroke-linejoin="round"/>
<path d="M1505.95,1240.69 L1505.90,1240.70" fill="none" stroke="rgb(0, 0, 0)" stroke-width="4.00" stroke-opacity="1.00" stroke-linejoin="round"/>
<path d="M1506.09,1240.43 L1506.09,1240.38" fill="none" stroke="rgb(0, 0, 0)" stroke-width="4.00" stroke-opacity="1.00" stroke-linejoin="round"/>
<path d="M1510.69,1238.59 L1510.67,1238.60" fill="none" stroke="rgb(0, 0, 0)" stroke-width="4.00" stroke-opacity="1.00" stroke-linejoin="round"/>
<path d="M1511.42,1238.10 L1511.37,1238.09" fill="none" stroke="rgb(0, 0, 0)" stroke-width="4.00" stroke-opacity="1.00" stroke-linejoin="round"/>
<path d="M1511.86,1237.93 L1511.82,1237.90" fill="none" stroke="rgb(0, 0, 0)" stroke-width="4.00" stroke-opacity="1.00" stroke-linejoin="round"/>
<path d="M1512.60,1237.66 L1512.58,1237.58" fill="none" stroke="rgb(0, 0, 0)" stroke-width="4.00" stroke-opacity="1.00" stroke-linejoin="round"/>
<path d="M1514.04,1237.20 L1514.04,1237.13" fill="none" stroke="rgb(0, 0, 0)" stroke-width="4.00" stroke-opacity="1.00" stroke-linejoin="round"/>
<path d="M1514.67,1236.78 L1514.62,1236.75" fill="none" stroke="rgb(0, 0, 0)" stroke-width="4.00" stroke-opacity="1.00" stroke-linejoin="round"/>
<path d="M1510.67,1238.53 L1510.48,1238.53" fill="none" stroke="rgb(0, 0, 0)" stroke-width="4.00" stroke-opacity="1.00" stroke-linejoin="round"/>
<path d="M1510.90,1237.96 L1510.86,1237.90" fill="none" stroke="rgb(0, 0, 0)" stroke-width="4.00" stroke-opacity="1.00" stroke-linejoin="round"/>
<path d="M1512.48,1237.54 L1512.47,1237.56" fill="none" stroke="rgb(0, 0, 0)" stroke-width="4.00" stroke-opacity="1.00" stroke-linejoin="round"/>
<path d="M1513.33,1237.49 L1513.31,1237.39" fill="none" stroke="rgb(0, 0, 0)" stroke-width="4.00" stroke-opacity="1.00" stroke-linejoin="round"/>
<path d="M1513.17,1237.11 L1513.14,1237.04" fill="none" stroke="rgb(0, 0, 0)" stroke-width="4.00" stroke-opacity="1.00" stroke-linejoin="round"/>
<path d="M1513.11,1237.15 L1513.07,1237.09" fill="none" stroke="rgb(0, 0, 0)" stroke-width="4.00" stroke-opacity="1.00" stroke-linejoin="round"/>
<path d="M1514.89,1237.11 L1514.95,1236.99" fill="none" stroke="rgb(0, 0, 0)" stroke-width="4.00" stroke-opacity="1.00" stroke-linejoin="round"/>
<path d="M1515.04,1236.29 L1514.93,1236.28" fill="none" stroke="rgb(0, 0, 0)" stroke-width="4.00" stroke-opacity="1.00" stroke-linejoin="round"/>
<path d="M1515.28,1236.15 L1515.29,1236.10" fill="none" stroke="rgb(0, 0, 0)" stroke-width="4.00" stroke-opacity="1.00" stroke-linejoin="round"/>
<path d="M1516.83,1235.89 L1516.86,1235.80" fill="none" stroke="rgb(0, 0, 0)" stroke-width="4.00" stroke-opacity="1.00" stroke-linejoin="round"/>
<path d="M1517.53,1235.50 L1517.51,1235.44" fill="none" stroke="rgb(0, 0, 0)" stroke-width="4.00" stroke-opacity="1.00" stroke-linejoin="round"/>
<path d="M1518.10,1234.87 L1518.08,1234.80" fill="none" stroke="rgb(0, 0, 0)" stroke-width="4.00" stroke-opacity="1.00" stroke-linejoin="round"/>
<path d="M1519.14,1234.50 L1519.12,1234.44" fill="none" stroke="rgb(0, 0, 0)" stroke-width="4.00" stroke-opacity="1.00" stroke-linejoin="round"/>
<path d="M1520.03,1234.31 L1520.02,1234.22" fill="none" stroke="rgb(0, 0, 0)" stroke-width="4.00" stroke-opacity="1.00" stroke-linejoin="round"/>
<path d="M1520.79,1233.95 L1520.73,1233.87" fill="none" stroke="rgb(0, 0, 0)" stroke-width="4.00" stroke-opacity="1.00" stroke-linejoin="round"/>
</g>
<g stroke-linecap="round" transform="translate(1434.00, 4.00)" id="사이드실패널(8)_복사">
<path d="M1739.53,1655.35 C1722.83,1655.26 1697.67,1655.21 1689.19,1655.26 C1683.56,1655.42 1682.56,1655.83 1682.61,1656.97 C1682.68,1657.84 1683.47,1659.88 1683.36,1662.07 C1682.42,1694.78 1681.40,1729.97 1680.85,1762.90 C1680.58,1778.67 1680.00,1813.47 1679.68,1832.50 C1679.40,1849.21 1678.80,1885.07 1678.48,1904.22 C1678.17,1923.17 1677.54,1960.48 1677.23,1978.84 C1676.93,1997.21 1676.32,2033.30 1676.02,2051.03 C1675.61,2073.17 1674.80,2116.60 1674.39,2137.89 C1673.94,2160.31 1673.10,2202.60 1672.70,2222.47 C1672.27,2243.81 1671.40,2287.34 1670.96,2309.53 C1670.54,2330.88 1669.73,2372.74 1669.34,2393.25 C1669.00,2412.01 1668.58,2435.63 1668.50,2440.49 C1671.97,2442.15 1674.46,2442.55 1677.51,2441.71 C1679.04,2441.33 1702.49,2438.78 1710.85,2438.20 C1719.22,2437.83 1730.76,2437.61 1740.22,2437.75 C1740.18,2416.89 1740.10,2370.83 1740.05,2345.65 C1740.00,2316.15 1739.89,2252.82 1739.82,2219.00 C1739.76,2180.86 1739.61,2100.27 1739.53,2057.81 C1739.46,2014.34 1739.31,1931.65 1739.24,1892.43 C1739.17,1857.53 1739.06,1792.05 1739.00,1761.47 C1738.95,1735.20 1738.87,1686.99 1738.83,1665.05 C1738.82,1662.61 1738.81,1657.79 1738.81,1655.42" fill="none" stroke="rgb(0, 0, 0)" stroke-width="7.00" stroke-opacity="1.00" stroke-linejoin="round"/>
</g>
<g stroke-linecap="round" transform="translate(1434.00, 4.00)" id="도어(3)_복사">
<path d="M1398.14,1688.81 Q1387.58,1921.85 1379.04,2154.30 Q1378.78,2158.75 1378.51,2163.20 Q1378.39,2163.68 1378.28,2164.17 Q1371.24,2336.56 1367.10,2510.59 Q1367.38,2520.74 1367.26,2536.91 Q1367.13,2553.09 1366.95,2569.04 Q1366.78,2584.99 1366.47,2610.09 Q1459.82,2552.89 1547.46,2525.06 Q1551.34,2523.83 1553.76,2522.98 Q1556.19,2522.13 1556.44,2521.42 Q1583.20,2465.91 1668.87,2442.51 Q1675.52,2068.17 1682.94,1693.85 Q1494.83,1676.98 1398.14,1688.81 Z" fill="none" stroke="rgb(0, 0, 0)" stroke-width="7.00" stroke-opacity="1.00" stroke-linejoin="round"/>
<path d="M1676.31,2161.44 Q1516.11,2150.84 1380.11,2163.93" fill="none" stroke="rgb(0, 0, 0)" stroke-width="7.00" stroke-opacity="1.00" stroke-linejoin="round"/>
<path d="M1679.33,2161.60 C1679.33,2161.60 1679.40,2161.60 1679.40,2161.60 C1679.40,2161.60 1679.38,2161.48 1679.38,2161.48 C1679.38,2161.48 1679.65,2164.33 1679.65,2164.33 C1679.65,2164.33 1678.94,2159.62 1678.94,2159.62 C1678.94,2159.62 1679.44,2164.32 1679.44,2164.32 C1679.64,2163.97 1679.74,2159.87 1679.64,2159.72 C1679.63,2159.71 1679.62,2159.69 1679.61,2159.66 C1679.61,2159.66 1679.27,2164.97 1679.27,2164.97 C1679.27,2164.97 1678.72,2159.60 1678.72,2159.60 C1678.72,2159.60 1679.27,2165.57 1679.27,2165.57 C1679.27,2165.57 1678.61,2160.38 1678.61,2160.38 C1678.60,2160.60 1678.98,2163.38 1679.15,2165.44 C1679.20,2165.96 1679.29,2166.36 1679.37,2166.54" fill="none" stroke="rgb(255, 255, 255)" stroke-width="0.70" stroke-opacity="1.00" stroke-linejoin="round"/>
<path d="M1678.68,2164.66 C1678.68,2164.66 1679.00,2166.05 1679.00,2166.05 C1679.00,2166.05 1678.55,2161.88 1678.55,2161.88 C1678.55,2161.88 1678.37,2165.68 1678.37,2165.68 C1678.37,2165.68 1678.61,2162.29 1678.61,2162.29 C1678.61,2162.29 1678.54,2165.71 1678.54,2165.71 C1678.54,2165.71 1678.09,2160.59 1678.09,2160.59 C1678.09,2160.59 1678.36,2165.37 1678.36,2165.37 C1678.36,2165.37 1678.31,2161.86 1678.31,2161.86 C1678.31,2161.86 1678.32,2165.28 1678.32,2165.28 C1678.32,2165.28 1677.85,2161.78 1677.85,2161.78 C1677.85,2161.78 1677.99,2163.33 1677.99,2163.33 C1677.99,2163.33 1677.66,2161.95 1677.66,2161.95 C1677.66,2161.95 1677.95,2163.24 1677.95,2163.24 C1677.95,2163.24 1677.67,2160.69 1677.67,2160.69 C1677.67,2160.69 1677.95,2162.64 1677.95,2162.64 C1677.95,2162.64 1677.86,2159.34 1677.86,2159.34 C1677.86,2159.34 1678.08,2163.57 1678.08,2163.57 C1678.08,2163.57 1677.76,2158.62 1677.76,2158.62 C1677.76,2158.62 1678.52,2163.67 1678.52,2163.67 C1678.52,2163.67 1678.00,2158.10 1678.00,2158.10 C1678.00,2158.10 1678.35,2166.22 1678.35,2166.22 C1678.35,2166.22 1678.36,2163.01 1678.36,2163.01 C1678.36,2163.01 1678.34,2166.22 1678.34,2166.22 C1678.34,2166.22 1678.06,2163.50 1678.06,2163.50 C1678.06,2163.50 1678.12,2165.90 1678.12,2165.90 C1678.12,2165.90 1677.98,2163.73 1677.98,2163.73 C1677.98,2163.73 1678.02,2165.53 1678.02,2165.53 C1678.02,2165.53 1677.75,2163.68 1677.75,2163.68 C1677.75,2163.68 1677.91,2165.40 1677.91,2165.40 C1677.91,2165.40 1677.64,2163.41 1677.64,2163.41 C1677.64,2163.41 1677.68,2164.91 1677.68,2164.91 C1677.68,2164.91 1679.33,2162.79 1679.33,2162.79 C1679.74,2162.88 1680.04,2162.88 1680.13,2162.90 C1680.19,2162.91 1680.51,2163.17 1680.67,2163.30 C1680.70,2163.33 1680.71,2163.34 1680.71,2163.34" fill="none" stroke="rgb(255, 255, 255)" stroke-width="0.70" stroke-opacity="1.00" stroke-linejoin="round"/>
</g>
<g stroke-linecap="round" transform="translate(1434.00, 4.00)" id="필러패널(14)_복사">
<path d="M1212.00,2147.61 L1375.76,2138.59" fill="none" stroke="rgb(0, 0, 0)" stroke-width="7.00" stroke-opacity="1.00" stroke-linejoin="round"/>
<path d="M1250.08,2141.74 Q1241.94,1980.65 1397.32,1689.59 Q1397.34,1689.38 1396.33,1688.37 Q1395.32,1687.37 1393.58,1685.66 Q1384.90,1677.31 1376.21,1668.97 Q1325.82,1771.00 1275.43,1873.04 Q1275.05,1873.83 1274.42,1874.90 Q1273.79,1875.98 1271.52,1880.23 Q1224.80,1974.66 1215.41,2062.15 Q1214.46,2066.73 1213.52,2071.32 Q1212.60,2108.61 1211.68,2145.89 Q1211.68,2146.07 1211.62,2146.24 Q1210.85,2173.04 1210.15,2199.85 Q1291.99,2201.05 1374.59,2202.27" fill="none" stroke="rgb(0, 0, 0)" stroke-width="7.00" stroke-opacity="1.00" stroke-linejoin="round"/>
<path d="M1216.23,2070.16 L1216.02,2070.63" fill="none" stroke="rgb(0, 0, 0)" stroke-width="1.50" stroke-opacity="1.00" stroke-linejoin="round"/>
<path d="M1216.46,2071.50 L1216.39,2071.40" fill="none" stroke="rgb(0, 0, 0)" stroke-width="1.50" stroke-opacity="1.00" stroke-linejoin="round"/>
<path d="M1210.29,2069.10 C1210.33,2069.27 1210.34,2069.50 1210.31,2069.78 C1210.12,2071.87 1208.94,2076.84 1208.89,2077.81 C1208.89,2077.81 1210.92,2069.47 1210.92,2069.47 C1210.92,2069.47 1209.52,2077.64 1209.52,2077.64 C1209.52,2077.64 1210.85,2067.11 1210.85,2067.11 C1210.85,2067.11 1209.70,2075.69 1209.70,2075.69 C1209.70,2075.69 1210.68,2066.33 1210.68,2066.33 C1210.68,2066.33 1208.99,2077.91 1208.99,2077.91 C1208.99,2077.91 1210.58,2068.08 1210.58,2068.08 C1210.73,2068.44 1209.18,2072.71 1208.60,2075.17 C1208.00,2077.78 1207.58,2082.03 1207.52,2082.30 C1207.52,2082.30 1209.87,2067.74 1209.87,2067.74 C1209.78,2068.46 1196.60,2085.78 1195.04,2088.22 C1194.44,2089.19 1194.45,2089.81 1195.19,2089.28 C1196.23,2088.50 1207.62,2077.32 1208.06,2077.10 C1208.85,2076.76 1207.82,2079.78 1207.54,2080.74 C1207.41,2081.17 1207.35,2081.76 1207.35,2082.51 C1207.35,2082.51 1210.06,2063.16 1210.06,2063.16 C1210.06,2063.16 1206.98,2081.48 1206.98,2081.48 C1206.98,2081.48 1210.70,2060.79 1210.70,2060.79 C1210.70,2060.79 1206.77,2077.68 1206.77,2077.68 C1206.77,2077.68 1210.13,2057.28 1210.13,2057.28 C1210.13,2057.28 1206.45,2075.05 1206.45,2075.05 C1206.45,2075.05 1209.97,2055.60 1209.97,2055.60 C1209.97,2055.60 1205.71,2075.14 1205.71,2075.14 C1205.71,2075.14 1207.92,2058.12 1207.92,2058.12 C1207.92,2058.12 1205.96,2071.40 1205.96,2071.40 C1205.96,2071.40 1208.93,2052.98 1208.93,2052.98 C1208.93,2052.98 1205.70,2066.84 1205.70,2066.84 C1205.70,2066.84 1207.85,2051.05 1207.85,2051.05 C1207.85,2051.05 1205.98,2063.20 1205.98,2063.20 C1205.98,2063.20 1208.02,2046.24 1208.02,2046.24 C1208.02,2046.24 1205.71,2063.90 1205.71,2063.90 C1205.71,2063.90 1208.00,2053.18 1208.00,2053.18 C1208.00,2053.18 1207.21,2068.74 1207.21,2068.74 C1207.21,2068.74 1207.83,2055.35 1207.83,2055.35 C1207.83,2055.35 1206.86,2067.21 1206.86,2067.21 C1206.86,2067.21 1208.82,2056.28 1208.82,2056.28 C1208.82,2056.28 1206.98,2065.62 1206.98,2065.62 C1206.98,2065.62 1207.15,2063.56 1207.15,2063.56 C1207.15,2063.56 1207.52,2069.03 1207.52,2069.03 C1207.52,2069.03 1208.49,2072.13 1208.49,2072.13 C1208.49,2072.13 1209.60,2066.56 1209.60,2066.56 C1209.60,2066.56 1209.71,2068.78 1209.71,2068.78 C1209.71,2068.78 1209.72,2066.49 1209.72,2066.49 C1209.72,2066.49 1209.26,2068.61 1209.26,2068.61 C1209.26,2068.61 1209.94,2065.74 1209.94,2065.74 C1209.94,2065.74 1209.43,2069.16 1209.43,2069.16 C1209.43,2069.16 1210.10,2064.85 1210.10,2064.85 C1210.10,2064.85 1207.36,2077.80 1207.36,2077.80 C1207.36,2077.80 1206.70,2086.00 1206.70,2086.00 C1206.70,2086.00 1208.06,2077.44 1208.06,2077.44 C1208.06,2077.44 1206.50,2090.36 1206.50,2090.36 C1206.50,2090.36 1208.59,2077.64 1208.59,2077.64 C1208.59,2077.64 1206.81,2094.64 1206.81,2094.64 C1206.81,2094.64 1208.44,2077.26 1208.44,2077.26 C1208.44,2077.26 1206.68,2092.78 1206.68,2092.78 C1205.26,2092.52 1208.87,2075.93 1209.41,2075.42 C1209.41,2075.42 1208.09,2083.11 1208.09,2083.11 C1208.09,2083.11 1210.19,2073.95 1210.19,2073.95 C1210.19,2073.95 1209.29,2078.92 1209.29,2078.92 C1209.29,2078.92 1210.29,2072.90 1210.29,2072.90 C1210.29,2072.90 1209.87,2076.22 1209.87,2076.22 C1209.87,2076.22 1210.62,2072.71 1210.62,2072.71 C1210.62,2072.71 1209.52,2076.71 1209.52,2076.71 C1209.52,2076.71 1209.92,2074.15 1209.92,2074.15 C1209.92,2074.15 1208.03,2083.12 1208.03,2083.12 C1208.03,2083.12 1208.16,2082.03 1208.16,2082.03 C1208.16,2082.03 1206.40,2095.09 1206.40,2095.09 C1206.40,2095.09 1207.36,2086.73 1207.36,2086.73 C1207.36,2086.73 1206.59,2098.85 1206.59,2098.85 C1206.59,2098.85 1207.61,2086.73 1207.61,2086.73 C1207.61,2086.73 1206.13,2098.88 1206.13,2098.88 C1206.13,2098.88 1206.09,2097.70 1206.09,2097.70 C1206.03,2098.06 1205.99,2098.31 1205.96,2098.47 C1205.93,2098.63 1205.87,2098.91 1205.77,2099.31" fill="none" stroke="rgb(255, 255, 255)" stroke-width="0.70" stroke-opacity="1.00" stroke-linejoin="round"/>
<path d="M1210.33,2197.68 Q1210.35,2231.69 1210.37,2265.69 Q1210.04,2269.15 1210.44,2274.41 Q1213.88,2389.68 1232.20,2483.41 Q1250.53,2577.13 1329.39,2682.46 Q1336.60,2693.02 1360.93,2716.90 Q1364.95,2668.13 1366.58,2612.11 Q1366.05,2611.80 1365.52,2611.49 Q1360.55,2606.70 1357.95,2603.88 Q1355.36,2601.07 1354.92,2600.53 Q1250.99,2473.35 1251.07,2200.49" fill="none" stroke="rgb(0, 0, 0)" stroke-width="7.00" stroke-opacity="1.00" stroke-linejoin="round"/>
<path d="M1378.56,2137.92 L1377.01,2203.58" fill="none" stroke="rgb(0, 0, 0)" stroke-width="7.00" stroke-opacity="1.00" stroke-linejoin="round"/>
</g>
<g stroke-linecap="round" transform="translate(1434.00, 4.00)" id="리어펜더(6)_복사">
<path d="M1361.05,2728.67 Q1363.80,2669.37 1366.75,2610.09 Q1366.96,2609.93 1369.04,2608.79 Q1371.12,2607.64 1375.14,2605.22 Q1451.85,2559.00 1554.41,2521.99 Q1514.05,2658.10 1597.23,2721.67" fill="none" stroke="rgb(0, 0, 0)" stroke-width="7.00" stroke-opacity="1.00" stroke-linejoin="round"/>
<path d="M1595.78,2720.83 Q1651.01,2760.70 1736.71,2761.86 Q1739.48,2886.29 1704.50,2927.59 Q1702.79,2929.61 1701.64,2930.78 Q1700.49,2931.94 1699.54,2932.01 Q1662.74,2970.22 1391.66,2910.98 Q1360.37,2853.66 1361.50,2721.99" fill="none" stroke="rgb(0, 0, 0)" stroke-width="7.00" stroke-opacity="1.00" stroke-linejoin="round"/>
</g>
<g stroke-linecap="round" transform="translate(1434.00, 4.00)" id="타이어(좌)_복사">
<path d="M1711.94,1365.76 C1705.49,1364.83 1689.45,1364.42 1681.93,1365.00 C1673.53,1365.66 1659.70,1368.70 1652.70,1370.99 C1645.45,1373.38 1631.81,1379.49 1625.46,1383.42 C1619.09,1387.38 1607.20,1396.59 1601.61,1401.88 C1596.89,1406.38 1586.86,1418.92 1582.71,1425.34 C1578.11,1432.50 1572.34,1444.30 1569.52,1452.33 C1567.00,1459.57 1563.25,1475.24 1562.59,1481.76 C1561.84,1489.46 1561.84,1504.59 1562.60,1512.10 C1563.38,1519.58 1566.89,1534.22 1569.42,1541.48 C1571.88,1548.49 1577.92,1561.41 1582.51,1568.55 C1586.63,1574.92 1596.72,1587.52 1601.38,1592.12 C1606.05,1596.70 1618.80,1606.55 1625.21,1610.55 C1632.39,1614.99 1645.35,1620.75 1652.35,1623.05 C1659.61,1625.42 1674.20,1628.57 1681.62,1629.16 C1689.08,1629.73 1704.06,1629.34 1711.66,1628.38 C1718.10,1627.54 1733.51,1623.34 1740.62,1620.61 C1748.50,1617.55 1760.03,1611.43 1767.00,1606.60 C1773.25,1602.24 1785.40,1591.79 1789.73,1586.91 C1794.83,1581.13 1803.63,1568.88 1807.39,1562.36 C1811.11,1555.84 1816.80,1541.91 1818.98,1534.54 C1821.07,1527.41 1823.71,1513.37 1824.14,1504.87 C1824.52,1497.27 1823.70,1481.09 1822.60,1474.61 C1821.49,1468.12 1816.91,1452.59 1814.05,1445.55 C1810.83,1437.69 1803.70,1425.35 1799.37,1419.33 C1794.88,1413.11 1784.91,1401.90 1779.25,1397.02 C1773.55,1392.13 1761.20,1383.56 1754.49,1379.82 C1748.79,1376.68 1733.88,1370.93 1726.54,1368.92 C1722.90,1367.94 1714.76,1366.18 1711.94,1365.76 Z" fill="none" stroke="rgb(0, 0, 0)" stroke-width="7.00" stroke-opacity="1.00" stroke-linejoin="round"/>
<path d="M1717.94,2467.76 C1711.49,2466.83 1695.45,2466.42 1687.93,2467.00 C1679.53,2467.66 1665.70,2470.70 1658.70,2472.99 C1651.45,2475.38 1637.81,2481.49 1631.46,2485.42 C1625.09,2489.38 1613.20,2498.59 1607.61,2503.88 C1602.89,2508.38 1592.86,2520.92 1588.71,2527.34 C1584.11,2534.50 1578.34,2546.30 1575.52,2554.33 C1573.00,2561.57 1569.25,2577.24 1568.59,2583.76 C1567.84,2591.46 1567.84,2606.59 1568.60,2614.10 C1569.38,2621.58 1572.89,2636.22 1575.42,2643.48 C1577.88,2650.49 1583.92,2663.41 1588.51,2670.55 C1592.63,2676.92 1602.72,2689.52 1607.38,2694.12 C1612.05,2698.70 1624.80,2708.55 1631.21,2712.55 C1638.39,2716.99 1651.35,2722.75 1658.35,2725.05 C1665.61,2727.42 1680.20,2730.57 1687.62,2731.16 C1695.08,2731.73 1710.06,2731.34 1717.66,2730.38 C1724.10,2729.54 1739.51,2725.34 1746.62,2722.61 C1754.50,2719.55 1766.03,2713.43 1773.00,2708.60 C1779.25,2704.24 1791.40,2693.79 1795.73,2688.91 C1800.83,2683.13 1809.63,2670.88 1813.39,2664.36 C1817.11,2657.84 1822.80,2643.91 1824.98,2636.54 C1827.07,2629.41 1829.71,2615.37 1830.14,2606.87 C1830.52,2599.27 1829.70,2583.09 1828.60,2576.61 C1827.49,2570.12 1822.91,2554.59 1820.05,2547.55 C1816.83,2539.69 1809.70,2527.35 1805.37,2521.33 C1800.88,2515.11 1790.91,2503.90 1785.25,2499.02 C1779.55,2494.13 1767.20,2485.56 1760.49,2481.82 C1754.79,2478.68 1739.88,2472.93 1732.54,2470.92 C1728.90,2469.94 1720.76,2468.18 1717.94,2467.76 Z" fill="none" stroke="rgb(0, 0, 0)" stroke-width="7.00" stroke-opacity="1.00" stroke-linejoin="round"/>
<path d="M1707.66,1409.16 C1700.73,1408.16 1683.85,1408.72 1677.08,1410.30 C1669.44,1412.11 1655.25,1417.96 1648.83,1422.20 C1645.61,1424.34 1639.57,1429.08 1636.63,1431.78 C1631.51,1436.53 1621.49,1450.25 1618.38,1456.58 C1615.30,1462.93 1610.61,1479.31 1610.00,1486.30 C1609.35,1494.20 1610.48,1509.63 1612.48,1517.10 C1613.51,1520.86 1616.11,1528.12 1617.74,1531.78 C1620.63,1538.16 1630.46,1552.02 1635.46,1556.97 C1640.49,1561.88 1654.47,1571.44 1660.87,1574.19 C1668.11,1577.26 1682.99,1580.94 1690.65,1581.33 C1694.51,1581.50 1702.15,1581.25 1706.10,1580.81 C1713.01,1580.01 1729.10,1574.86 1735.30,1571.58 C1741.49,1568.28 1754.81,1557.81 1759.38,1552.51 C1764.50,1546.51 1772.57,1533.36 1775.31,1526.12 C1776.66,1522.47 1778.78,1515.06 1779.59,1511.12 C1780.98,1504.24 1781.09,1487.20 1779.92,1480.23 C1778.72,1473.27 1772.98,1457.24 1769.40,1451.22 C1765.33,1444.44 1755.43,1432.63 1749.46,1427.77 C1746.44,1425.34 1740.11,1421.01 1736.66,1419.02 C1730.61,1415.57 1714.58,1410.19 1707.66,1409.16 Z" fill="none" stroke="rgb(0, 0, 0)" stroke-width="7.00" stroke-opacity="1.00" stroke-linejoin="round"/>
<path d="M1738.82,1336.32 L1738.30,1371.49" fill="none" stroke="rgb(0, 0, 0)" stroke-width="7.00" stroke-opacity="1.00" stroke-linejoin="round"/>
<path d="M1739.53,1622.73 L1738.94,1656.83" fill="none" stroke="rgb(0, 0, 0)" stroke-width="7.00" stroke-opacity="1.00" stroke-linejoin="round"/>
<path d="M1739.46,2437.30 L1739.42,2437.28" fill="none" stroke="rgb(0, 0, 0)" stroke-width="7.00" stroke-opacity="1.00" stroke-linejoin="round"/>
<path d="M1739.48,2437.38 L1739.47,2437.38" fill="none" stroke="rgb(0, 0, 0)" stroke-width="7.00" stroke-opacity="1.00" stroke-linejoin="round"/>
<path d="M1739.91,2437.20 L1740.64,2472.85" fill="none" stroke="rgb(0, 0, 0)" stroke-width="7.00" stroke-opacity="1.00" stroke-linejoin="round"/>
<path d="M1736.57,2761.64 L1737.22,2726.45" fill="none" stroke="rgb(0, 0, 0)" stroke-width="7.00" stroke-opacity="1.00" stroke-linejoin="round"/>
<path d="M1714.69,2511.73 C1707.61,2510.73 1690.36,2511.30 1683.43,2512.88 C1675.62,2514.70 1661.12,2520.58 1654.55,2524.83 C1651.26,2526.98 1645.10,2531.74 1642.09,2534.45 C1636.85,2539.22 1626.61,2553.00 1623.43,2559.35 C1620.28,2565.73 1615.49,2582.17 1614.87,2589.19 C1614.20,2597.12 1615.35,2612.62 1617.40,2620.12 C1618.45,2623.90 1621.11,2631.18 1622.78,2634.86 C1625.73,2641.27 1635.78,2655.19 1640.89,2660.15 C1646.03,2665.09 1660.32,2674.69 1666.86,2677.44 C1674.26,2680.52 1689.47,2684.22 1697.30,2684.61 C1701.25,2684.79 1709.05,2684.53 1713.09,2684.09 C1720.16,2683.29 1736.60,2678.11 1742.94,2674.82 C1749.27,2671.50 1762.89,2660.99 1767.55,2655.68 C1772.79,2649.65 1781.04,2636.44 1783.83,2629.17 C1785.22,2625.51 1787.39,2618.07 1788.22,2614.12 C1789.63,2607.21 1789.75,2590.09 1788.55,2583.10 C1787.32,2576.11 1781.45,2560.01 1777.79,2553.97 C1773.63,2547.16 1763.52,2535.30 1757.41,2530.42 C1754.33,2527.98 1747.86,2523.64 1744.33,2521.64 C1738.14,2518.17 1721.77,2512.77 1714.69,2511.73 Z" fill="none" stroke="rgb(0, 0, 0)" stroke-width="7.00" stroke-opacity="1.00" stroke-linejoin="round"/>
</g>
</svg>
