<?xml version="1.0" encoding="UTF-8" standalone="no"?>
<!DOCTYPE svg PUBLIC "-//W3C//DTD SVG 1.1//EN" "http://www.w3.org/Graphics/SVG/1.1/DTD/svg11.dtd">
<svg width="1440.00" height="960.00" viewBox="0.00 0.00 6000.00 4000.00" xmlns="http://www.w3.org/2000/svg" xmlns:xlink="http://www.w3.org/1999/xlink">
<g stroke-linecap="round" id="범퍼(2)">
<path d="M1288.06,1337.64 Q1408.48,1325.78 1455.45,1393.93 Q1527.85,1499.87 1462.90,1596.15 Q1460.63,1599.10 1458.35,1602.04 Q1421.06,1648.25 1345.15,1655.52 Q1344.86,1675.50 1344.57,1695.48 Q1519.27,1674.98 1627.76,1689.21 Q1630.85,1687.37 1633.94,1685.52 Q1641.39,1679.06 1648.84,1672.59 Q1650.34,1671.10 1651.83,1669.61 Q1635.65,1469.57 1561.11,1273.11 Q1561.05,1272.72 1560.77,1272.16 Q1560.50,1271.60 1558.54,1269.04 Q1556.57,1266.47 1556.57,1266.47 Q1541.82,1249.67 1506.13,1235.71 Q1504.30,1234.83 1502.47,1233.96 Q1441.80,1214.28 1344.26,1216.73 Q1301.65,1221.62 1289.88,1258.32 Q1290.07,1260.85 1289.05,1263.80 Q1285.93,1302.28 1288.06,1337.64 Z" fill="none" stroke="rgb(0, 0, 0)" stroke-width="7.00" stroke-opacity="1.00" stroke-linejoin="round"/>
<path d="M1492.80,1232.63 Q1495.29,1280.42 1497.78,1328.22 Q1498.00,1332.62 1498.15,1335.01 Q1498.29,1337.39 1498.37,1337.75 Q1500.55,1350.06 1533.94,1359.73 Q1534.74,1359.97 1537.72,1356.59 Q1549.15,1333.20 1517.53,1239.51" fill="none" stroke="rgb(0, 0, 0)" stroke-width="7.00" stroke-opacity="1.00" stroke-linejoin="round"/>
<path d="M1521.05,1240.69 L1521.10,1240.70" fill="none" stroke="rgb(0, 0, 0)" stroke-width="4.00" stroke-opacity="1.00" stroke-linejoin="round"/>
<path d="M1520.91,1240.43 L1520.91,1240.38" fill="none" stroke="rgb(0, 0, 0)" stroke-width="4.00" stroke-opacity="1.00" stroke-linejoin="round"/>
<path d="M1516.31,1238.59 L1516.33,1238.60" fill="none" stroke="rgb(0, 0, 0)" stroke-width="4.00" stroke-opacity="1.00" stroke-linejoin="round"/>
<path d="M1515.58,1238.10 L1515.63,1238.09" fill="none" stroke="rgb(0, 0, 0)" stroke-width="4.00" stroke-opacity="1.00" stroke-linejoin="round"/>
<path d="M1515.14,1237.93 L1515.18,1237.90" fill="none" stroke="rgb(0, 0, 0)" stroke-width="4.00" stroke-opacity="1.00" stroke-linejoin="round"/>
<path d="M1514.40,1237.66 L1514.42,1237.58" fill="none" stroke="rgb(0, 0, 0)" stroke-width="4.00" stroke-opacity="1.00" stroke-linejoin="round"/>
<path d="M1512.96,1237.20 L1512.96,1237.13" fill="none" stroke="rgb(0, 0, 0)" stroke-width="4.00" stroke-opacity="1.00" stroke-linejoin="round"/>
<path d="M1512.33,1236.78 L1512.38,1236.75" fill="none" stroke="rgb(0, 0, 0)" stroke-width="4.00" stroke-opacity="1.00" stroke-linejoin="round"/>
<path d="M1516.33,1238.53 L1516.52,1238.53" fill="none" stroke="rgb(0, 0, 0)" stroke-width="4.00" stroke-opacity="1.00" stroke-linejoin="round"/>
<path d="M1516.10,1237.96 L1516.14,1237.90" fill="none" stroke="rgb(0, 0, 0)" stroke-width="4.00" stroke-opacity="1.00" stroke-linejoin="round"/>
<path d="M1514.52,1237.54 L1514.53,1237.56" fill="none" stroke="rgb(0, 0, 0)" stroke-width="4.00" stroke-opacity="1.00" stroke-linejoin="round"/>
<path d="M1513.67,1237.49 L1513.69,1237.39" fill="none" stroke="rgb(0, 0, 0)" stroke-width="4.00" stroke-opacity="1.00" stroke-linejoin="round"/>
<path d="M1513.83,1237.11 L1513.86,1237.04" fill="none" stroke="rgb(0, 0, 0)" stroke-width="4.00" stroke-opacity="1.00" stroke-linejoin="round"/>
<path d="M1513.89,1237.15 L1513.93,1237.09" fill="none" stroke="rgb(0, 0, 0)" stroke-width="4.00" stroke-opacity="1.00" stroke-linejoin="round"/>
<path d="M1512.11,1237.11 L1512.05,1236.99" fill="none" stroke="rgb(0, 0, 0)" stroke-width="4.00" stroke-opacity="1.00" stroke-linejoin="round"/>
<path d="M1511.96,1236.29 L1512.07,1236.28" fill="none" stroke="rgb(0, 0, 0)" stroke-width="4.00" stroke-opacity="1.00" stroke-linejoin="round"/>
<path d="M1511.72,1236.15 L1511.71,1236.10" fill="none" stroke="rgb(0, 0, 0)" stroke-width="4.00" stroke-opacity="1.00" stroke-linejoin="round"/>
<path d="M1510.17,1235.89 L1510.14,1235.80" fill="none" stroke="rgb(0, 0, 0)" stroke-width="4.00" stroke-opacity="1.00" stroke-linejoin="round"/>
<path d="M1509.47,1235.50 L1509.49,1235.44" fill="none" stroke="rgb(0, 0, 0)" stroke-width="4.00" stroke-opacity="1.00" stroke-linejoin="round"/>
<path d="M1508.90,1234.87 L1508.92,1234.80" fill="none" stroke="rgb(0, 0, 0)" stroke-width="4.00" stroke-opacity="1.00" stroke-linejoin="round"/>
<path d="M1507.86,1234.50 L1507.88,1234.44" fill="none" stroke="rgb(0, 0, 0)" stroke-width="4.00" stroke-opacity="1.00" stroke-linejoin="round"/>
<path d="M1506.97,1234.31 L1506.98,1234.22" fill="none" stroke="rgb(0, 0, 0)" stroke-width="4.00" stroke-opacity="1.00" stroke-linejoin="round"/>
<path d="M1506.21,1233.95 L1506.27,1233.87" fill="none" stroke="rgb(0, 0, 0)" stroke-width="4.00" stroke-opacity="1.00" stroke-linejoin="round"/>
</g>
<g stroke-linecap="round" id="사이드실패널(8)">
<path d="M1287.47,1655.35 C1304.17,1655.26 1329.33,1655.21 1337.81,1655.26 C1343.44,1655.42 1344.44,1655.83 1344.39,1656.97 C1344.32,1657.84 1343.53,1659.88 1343.64,1662.07 C1344.58,1694.78 1345.60,1729.97 1346.15,1762.90 C1346.42,1778.67 1347.00,1813.47 1347.32,1832.50 C1347.60,1849.21 1348.20,1885.07 1348.52,1904.22 C1348.83,1923.17 1349.46,1960.48 1349.77,1978.84 C1350.07,1997.21 1350.68,2033.30 1350.98,2051.03 C1351.39,2073.17 1352.20,2116.60 1352.61,2137.89 C1353.06,2160.31 1353.90,2202.60 1354.30,2222.47 C1354.73,2243.81 1355.60,2287.34 1356.04,2309.53 C1356.46,2330.88 1357.27,2372.74 1357.66,2393.25 C1358.00,2412.01 1358.42,2435.63 1358.50,2440.49 C1355.03,2442.15 1352.54,2442.55 1349.49,2441.71 C1347.96,2441.33 1324.51,2438.78 1316.15,2438.20 C1307.78,2437.83 1296.24,2437.61 1286.78,2437.75 C1286.82,2416.89 1286.90,2370.83 1286.95,2345.65 C1287.00,2316.15 1287.11,2252.82 1287.18,2219.00 C1287.24,2180.86 1287.39,2100.27 1287.47,2057.81 C1287.54,2014.34 1287.69,1931.65 1287.76,1892.43 C1287.83,1857.53 1287.94,1792.05 1288.00,1761.47 C1288.05,1735.20 1288.13,1686.99 1288.17,1665.05 C1288.18,1662.61 1288.19,1657.79 1288.19,1655.42" fill="none" stroke="rgb(0, 0, 0)" stroke-width="7.00" stroke-opacity="1.00" stroke-linejoin="round"/>
</g>
<g stroke-linecap="round" id="도어(3)">
<path d="M1628.86,1688.81 Q1639.42,1921.85 1647.96,2154.30 Q1648.22,2158.75 1648.49,2163.20 Q1648.61,2163.68 1648.72,2164.17 Q1655.76,2336.56 1659.90,2510.59 Q1659.62,2520.74 1659.74,2536.91 Q1659.87,2553.09 1660.05,2569.04 Q1660.22,2584.99 1660.53,2610.09 Q1567.18,2552.89 1479.54,2525.06 Q1475.66,2523.83 1473.24,2522.98 Q1470.81,2522.13 1470.56,2521.42 Q1443.80,2465.91 1358.13,2442.51 Q1351.48,2068.17 1344.06,1693.85 Q1532.17,1676.98 1628.86,1688.81 Z" fill="none" stroke="rgb(0, 0, 0)" stroke-width="7.00" stroke-opacity="1.00" stroke-linejoin="round"/>
<path d="M1350.69,2161.44 Q1510.89,2150.84 1646.89,2163.93" fill="none" stroke="rgb(0, 0, 0)" stroke-width="7.00" stroke-opacity="1.00" stroke-linejoin="round"/>
<path d="M1347.67,2161.60 C1347.67,2161.60 1347.60,2161.60 1347.60,2161.60 C1347.60,2161.60 1347.62,2161.48 1347.62,2161.48 C1347.62,2161.48 1347.35,2164.33 1347.35,2164.33 C1347.35,2164.33 1348.06,2159.62 1348.06,2159.62 C1348.06,2159.62 1347.56,2164.32 1347.56,2164.32 C1347.36,2163.97 1347.26,2159.87 1347.36,2159.72 C1347.37,2159.71 1347.38,2159.69 1347.39,2159.66 C1347.39,2159.66 1347.73,2164.97 1347.73,2164.97 C1347.73,2164.97 1348.28,2159.60 1348.28,2159.60 C1348.28,2159.60 1347.73,2165.57 1347.73,2165.57 C1347.73,2165.57 1348.39,2160.38 1348.39,2160.38 C1348.40,2160.60 1348.02,2163.38 1347.85,2165.44 C1347.80,2165.96 1347.71,2166.36 1347.63,2166.54" fill="none" stroke="rgb(255, 255, 255)" stroke-width="0.70" stroke-opacity="1.00" stroke-linejoin="round"/>
<path d="M1348.32,2164.66 C1348.32,2164.66 1348.00,2166.05 1348.00,2166.05 C1348.00,2166.05 1348.45,2161.88 1348.45,2161.88 C1348.45,2161.88 1348.63,2165.68 1348.63,2165.68 C1348.63,2165.68 1348.39,2162.29 1348.39,2162.29 C1348.39,2162.29 1348.46,2165.71 1348.46,2165.71 C1348.46,2165.71 1348.91,2160.59 1348.91,2160.59 C1348.91,2160.59 1348.64,2165.37 1348.64,2165.37 C1348.64,2165.37 1348.69,2161.86 1348.69,2161.86 C1348.69,2161.86 1348.68,2165.28 1348.68,2165.28 C1348.68,2165.28 1349.15,2161.78 1349.15,2161.78 C1349.15,2161.78 1349.01,2163.33 1349.01,2163.33 C1349.01,2163.33 1349.34,2161.95 1349.34,2161.95 C1349.34,2161.95 1349.05,2163.24 1349.05,2163.24 C1349.05,2163.24 1349.33,2160.69 1349.33,2160.69 C1349.33,2160.69 1349.05,2162.64 1349.05,2162.64 C1349.05,2162.64 1349.14,2159.34 1349.14,2159.34 C1349.14,2159.34 1348.92,2163.57 1348.92,2163.57 C1348.92,2163.57 1349.24,2158.62 1349.24,2158.62 C1349.24,2158.62 1348.48,2163.67 1348.48,2163.67 C1348.48,2163.67 1349.00,2158.10 1349.00,2158.10 C1349.00,2158.10 1348.65,2166.22 1348.65,2166.22 C1348.65,2166.22 1348.64,2163.01 1348.64,2163.01 C1348.64,2163.01 1348.66,2166.22 1348.66,2166.22 C1348.66,2166.22 1348.94,2163.50 1348.94,2163.50 C1348.94,2163.50 1348.88,2165.90 1348.88,2165.90 C1348.88,2165.90 1349.02,2163.73 1349.02,2163.73 C1349.02,2163.73 1348.98,2165.53 1348.98,2165.53 C1348.98,2165.53 1349.25,2163.68 1349.25,2163.68 C1349.25,2163.68 1349.09,2165.40 1349.09,2165.40 C1349.09,2165.40 1349.36,2163.41 1349.36,2163.41 C1349.36,2163.41 1349.32,2164.91 1349.32,2164.91 C1349.32,2164.91 1347.67,2162.79 1347.67,2162.79 C1347.26,2162.88 1346.96,2162.88 1346.87,2162.90 C1346.81,2162.91 1346.49,2163.17 1346.33,2163.30 C1346.30,2163.33 1346.29,2163.34 1346.29,2163.34" fill="none" stroke="rgb(255, 255, 255)" stroke-width="0.70" stroke-opacity="1.00" stroke-linejoin="round"/>
</g>
<g stroke-linecap="round" id="필러패널(14)">
<path d="M1815.00,2147.61 L1651.24,2138.59" fill="none" stroke="rgb(0, 0, 0)" stroke-width="7.00" stroke-opacity="1.00" stroke-linejoin="round"/>
<path d="M1776.92,2141.74 Q1785.06,1980.65 1629.68,1689.59 Q1629.66,1689.38 1630.67,1688.37 Q1631.68,1687.37 1633.42,1685.66 Q1642.10,1677.31 1650.79,1668.97 Q1701.18,1771.00 1751.57,1873.04 Q1751.95,1873.83 1752.58,1874.90 Q1753.21,1875.98 1755.48,1880.23 Q1802.20,1974.66 1811.59,2062.15 Q1812.54,2066.73 1813.48,2071.32 Q1814.40,2108.61 1815.32,2145.89 Q1815.32,2146.07 1815.38,2146.24 Q1816.15,2173.04 1816.85,2199.85 Q1735.01,2201.05 1652.41,2202.27" fill="none" stroke="rgb(0, 0, 0)" stroke-width="7.00" stroke-opacity="1.00" stroke-linejoin="round"/>
<path d="M1810.77,2070.16 L1810.98,2070.63" fill="none" stroke="rgb(0, 0, 0)" stroke-width="1.50" stroke-opacity="1.00" stroke-linejoin="round"/>
<path d="M1810.54,2071.50 L1810.61,2071.40" fill="none" stroke="rgb(0, 0, 0)" stroke-width="1.50" stroke-opacity="1.00" stroke-linejoin="round"/>
<path d="M1816.71,2069.10 C1816.67,2069.27 1816.66,2069.50 1816.69,2069.78 C1816.88,2071.87 1818.06,2076.84 1818.11,2077.81 C1818.11,2077.81 1816.08,2069.47 1816.08,2069.47 C1816.08,2069.47 1817.48,2077.64 1817.48,2077.64 C1817.48,2077.64 1816.15,2067.11 1816.15,2067.11 C1816.15,2067.11 1817.30,2075.69 1817.30,2075.69 C1817.30,2075.69 1816.32,2066.33 1816.32,2066.33 C1816.32,2066.33 1818.01,2077.91 1818.01,2077.91 C1818.01,2077.91 1816.42,2068.08 1816.42,2068.08 C1816.27,2068.44 1817.82,2072.71 1818.40,2075.17 C1819.00,2077.78 1819.42,2082.03 1819.48,2082.30 C1819.48,2082.30 1817.13,2067.74 1817.13,2067.74 C1817.22,2068.46 1830.40,2085.78 1831.96,2088.22 C1832.56,2089.19 1832.55,2089.81 1831.81,2089.28 C1830.77,2088.50 1819.38,2077.32 1818.94,2077.10 C1818.15,2076.76 1819.18,2079.78 1819.46,2080.74 C1819.59,2081.17 1819.65,2081.76 1819.65,2082.51 C1819.65,2082.51 1816.94,2063.16 1816.94,2063.16 C1816.94,2063.16 1820.02,2081.48 1820.02,2081.48 C1820.02,2081.48 1816.30,2060.79 1816.30,2060.79 C1816.30,2060.79 1820.23,2077.68 1820.23,2077.68 C1820.23,2077.68 1816.87,2057.28 1816.87,2057.28 C1816.87,2057.28 1820.55,2075.05 1820.55,2075.05 C1820.55,2075.05 1817.03,2055.60 1817.03,2055.60 C1817.03,2055.60 1821.29,2075.14 1821.29,2075.14 C1821.29,2075.14 1819.08,2058.12 1819.08,2058.12 C1819.08,2058.12 1821.04,2071.40 1821.04,2071.40 C1821.04,2071.40 1818.07,2052.98 1818.07,2052.98 C1818.07,2052.98 1821.30,2066.84 1821.30,2066.84 C1821.30,2066.84 1819.15,2051.05 1819.15,2051.05 C1819.15,2051.05 1821.02,2063.20 1821.02,2063.20 C1821.02,2063.20 1818.98,2046.24 1818.98,2046.24 C1818.98,2046.24 1821.29,2063.90 1821.29,2063.90 C1821.29,2063.90 1819.00,2053.18 1819.00,2053.18 C1819.00,2053.18 1819.79,2068.74 1819.79,2068.74 C1819.79,2068.74 1819.17,2055.35 1819.17,2055.35 C1819.17,2055.35 1820.14,2067.21 1820.14,2067.21 C1820.14,2067.21 1818.18,2056.28 1818.18,2056.28 C1818.18,2056.28 1820.02,2065.62 1820.02,2065.62 C1820.02,2065.62 1819.85,2063.56 1819.85,2063.56 C1819.85,2063.56 1819.48,2069.03 1819.48,2069.03 C1819.48,2069.03 1818.51,2072.13 1818.51,2072.13 C1818.51,2072.13 1817.40,2066.56 1817.40,2066.56 C1817.40,2066.56 1817.29,2068.78 1817.29,2068.78 C1817.29,2068.78 1817.28,2066.49 1817.28,2066.49 C1817.28,2066.49 1817.74,2068.61 1817.74,2068.61 C1817.74,2068.61 1817.06,2065.74 1817.06,2065.74 C1817.06,2065.74 1817.57,2069.16 1817.57,2069.16 C1817.57,2069.16 1816.90,2064.85 1816.90,2064.85 C1816.90,2064.85 1819.64,2077.80 1819.64,2077.80 C1819.64,2077.80 1820.30,2086.00 1820.30,2086.00 C1820.30,2086.00 1818.94,2077.44 1818.94,2077.44 C1818.94,2077.44 1820.50,2090.36 1820.50,2090.36 C1820.50,2090.36 1818.41,2077.64 1818.41,2077.64 C1818.41,2077.64 1820.19,2094.64 1820.19,2094.64 C1820.19,2094.64 1818.56,2077.26 1818.56,2077.26 C1818.56,2077.26 1820.32,2092.78 1820.32,2092.78 C1821.74,2092.52 1818.13,2075.93 1817.59,2075.42 C1817.59,2075.42 1818.91,2083.11 1818.91,2083.11 C1818.91,2083.11 1816.81,2073.95 1816.81,2073.95 C1816.81,2073.95 1817.71,2078.92 1817.71,2078.92 C1817.71,2078.92 1816.71,2072.90 1816.71,2072.90 C1816.71,2072.90 1817.13,2076.22 1817.13,2076.22 C1817.13,2076.22 1816.38,2072.71 1816.38,2072.71 C1816.38,2072.71 1817.48,2076.71 1817.48,2076.71 C1817.48,2076.71 1817.08,2074.15 1817.08,2074.15 C1817.08,2074.15 1818.97,2083.12 1818.97,2083.12 C1818.97,2083.12 1818.84,2082.03 1818.84,2082.03 C1818.84,2082.03 1820.60,2095.09 1820.60,2095.09 C1820.60,2095.09 1819.64,2086.73 1819.64,2086.73 C1819.64,2086.73 1820.41,2098.85 1820.41,2098.85 C1820.41,2098.85 1819.39,2086.73 1819.39,2086.73 C1819.39,2086.73 1820.87,2098.88 1820.87,2098.88 C1820.87,2098.88 1820.91,2097.70 1820.91,2097.70 C1820.97,2098.06 1821.01,2098.31 1821.04,2098.47 C1821.07,2098.63 1821.13,2098.91 1821.23,2099.31" fill="none" stroke="rgb(255, 255, 255)" stroke-width="0.70" stroke-opacity="1.00" stroke-linejoin="round"/>
<path d="M1816.67,2197.68 Q1816.65,2231.69 1816.63,2265.69 Q1816.96,2269.15 1816.56,2274.41 Q1813.12,2389.68 1794.80,2483.41 Q1776.47,2577.13 1697.61,2682.46 Q1690.40,2693.02 1666.07,2716.90 Q1662.05,2668.13 1660.42,2612.11 Q1660.95,2611.80 1661.48,2611.49 Q1666.45,2606.70 1669.05,2603.88 Q1671.64,2601.07 1672.08,2600.53 Q1776.01,2473.35 1775.93,2200.49" fill="none" stroke="rgb(0, 0, 0)" stroke-width="7.00" stroke-opacity="1.00" stroke-linejoin="round"/>
<path d="M1648.44,2137.92 L1649.99,2203.58" fill="none" stroke="rgb(0, 0, 0)" stroke-width="7.00" stroke-opacity="1.00" stroke-linejoin="round"/>
</g>
<g stroke-linecap="round" id="리어펜더(6)">
<path d="M1665.95,2728.67 Q1663.20,2669.37 1660.25,2610.09 Q1660.04,2609.93 1657.96,2608.79 Q1655.88,2607.64 1651.86,2605.22 Q1575.15,2559.00 1472.59,2521.99 Q1512.95,2658.10 1429.77,2721.67" fill="none" stroke="rgb(0, 0, 0)" stroke-width="7.00" stroke-opacity="1.00" stroke-linejoin="round"/>
<path d="M1431.22,2720.83 Q1375.99,2760.70 1290.29,2761.86 Q1287.52,2886.29 1322.50,2927.59 Q1324.21,2929.61 1325.36,2930.78 Q1326.51,2931.94 1327.46,2932.01 Q1364.26,2970.22 1635.34,2910.98 Q1666.63,2853.66 1665.50,2721.99" fill="none" stroke="rgb(0, 0, 0)" stroke-width="7.00" stroke-opacity="1.00" stroke-linejoin="round"/>
</g>
<g stroke-linecap="round" id="타이어(좌)">
<path d="M1315.06,1365.76 C1321.51,1364.83 1337.55,1364.42 1345.07,1365.00 C1353.47,1365.66 1367.30,1368.70 1374.30,1370.99 C1381.55,1373.38 1395.19,1379.49 1401.54,1383.42 C1407.91,1387.38 1419.80,1396.59 1425.39,1401.88 C1430.11,1406.38 1440.14,1418.92 1444.29,1425.34 C1448.89,1432.50 1454.66,1444.30 1457.48,1452.33 C1460.00,1459.57 1463.75,1475.24 1464.41,1481.76 C1465.16,1489.46 1465.16,1504.59 1464.40,1512.10 C1463.62,1519.58 1460.11,1534.22 1457.58,1541.48 C1455.12,1548.49 1449.08,1561.41 1444.49,1568.55 C1440.37,1574.92 1430.28,1587.52 1425.62,1592.12 C1420.95,1596.70 1408.20,1606.55 1401.79,1610.55 C1394.61,1614.99 1381.65,1620.75 1374.65,1623.05 C1367.39,1625.42 1352.80,1628.57 1345.38,1629.16 C1337.92,1629.73 1322.94,1629.34 1315.34,1628.38 C1308.90,1627.54 1293.49,1623.34 1286.38,1620.61 C1278.50,1617.55 1266.97,1611.43 1260.00,1606.60 C1253.75,1602.24 1241.60,1591.79 1237.27,1586.91 C1232.17,1581.13 1223.37,1568.88 1219.61,1562.36 C1215.89,1555.84 1210.20,1541.91 1208.02,1534.54 C1205.93,1527.41 1203.29,1513.37 1202.86,1504.87 C1202.48,1497.27 1203.30,1481.09 1204.40,1474.61 C1205.51,1468.12 1210.09,1452.59 1212.95,1445.55 C1216.17,1437.69 1223.30,1425.35 1227.63,1419.33 C1232.12,1413.11 1242.09,1401.90 1247.75,1397.02 C1253.45,1392.13 1265.80,1383.56 1272.51,1379.82 C1278.21,1376.68 1293.12,1370.93 1300.46,1368.92 C1304.10,1367.94 1312.24,1366.18 1315.06,1365.76 Z" fill="none" stroke="rgb(0, 0, 0)" stroke-width="7.00" stroke-opacity="1.00" stroke-linejoin="round"/>
<path d="M1309.06,2467.76 C1315.51,2466.83 1331.55,2466.42 1339.07,2467.00 C1347.47,2467.66 1361.30,2470.70 1368.30,2472.99 C1375.55,2475.38 1389.19,2481.49 1395.54,2485.42 C1401.91,2489.38 1413.80,2498.59 1419.39,2503.88 C1424.11,2508.38 1434.14,2520.92 1438.29,2527.34 C1442.89,2534.50 1448.66,2546.30 1451.48,2554.33 C1454.00,2561.57 1457.75,2577.24 1458.41,2583.76 C1459.16,2591.46 1459.16,2606.59 1458.40,2614.10 C1457.62,2621.58 1454.11,2636.22 1451.58,2643.48 C1449.12,2650.49 1443.08,2663.41 1438.49,2670.55 C1434.37,2676.92 1424.28,2689.52 1419.62,2694.12 C1414.95,2698.70 1402.20,2708.55 1395.79,2712.55 C1388.61,2716.99 1375.65,2722.75 1368.65,2725.05 C1361.39,2727.42 1346.80,2730.57 1339.38,2731.16 C1331.92,2731.73 1316.94,2731.34 1309.34,2730.38 C1302.90,2729.54 1287.49,2725.34 1280.38,2722.61 C1272.50,2719.55 1260.97,2713.43 1254.00,2708.60 C1247.75,2704.24 1235.60,2693.79 1231.27,2688.91 C1226.17,2683.13 1217.37,2670.88 1213.61,2664.36 C1209.89,2657.84 1204.20,2643.91 1202.02,2636.54 C1199.93,2629.41 1197.29,2615.37 1196.86,2606.87 C1196.48,2599.27 1197.30,2583.09 1198.40,2576.61 C1199.51,2570.12 1204.09,2554.59 1206.95,2547.55 C1210.17,2539.69 1217.30,2527.35 1221.63,2521.33 C1226.12,2515.11 1236.09,2503.90 1241.75,2499.02 C1247.45,2494.13 1259.80,2485.56 1266.51,2481.82 C1272.21,2478.68 1287.12,2472.93 1294.46,2470.92 C1298.10,2469.94 1306.24,2468.18 1309.06,2467.76 Z" fill="none" stroke="rgb(0, 0, 0)" stroke-width="7.00" stroke-opacity="1.00" stroke-linejoin="round"/>
<path d="M1319.34,1409.16 C1326.27,1408.16 1343.15,1408.72 1349.92,1410.30 C1357.56,1412.11 1371.75,1417.96 1378.17,1422.20 C1381.39,1424.34 1387.43,1429.08 1390.37,1431.78 C1395.49,1436.53 1405.51,1450.25 1408.62,1456.58 C1411.70,1462.93 1416.39,1479.31 1417.00,1486.30 C1417.65,1494.20 1416.52,1509.63 1414.52,1517.10 C1413.49,1520.86 1410.89,1528.12 1409.26,1531.78 C1406.37,1538.16 1396.54,1552.02 1391.54,1556.97 C1386.51,1561.88 1372.53,1571.44 1366.13,1574.19 C1358.89,1577.26 1344.01,1580.94 1336.35,1581.33 C1332.49,1581.50 1324.85,1581.25 1320.90,1580.81 C1313.99,1580.01 1297.90,1574.86 1291.70,1571.58 C1285.51,1568.28 1272.19,1557.81 1267.62,1552.51 C1262.50,1546.51 1254.43,1533.36 1251.69,1526.12 C1250.34,1522.47 1248.22,1515.06 1247.41,1511.12 C1246.02,1504.24 1245.91,1487.20 1247.08,1480.23 C1248.28,1473.27 1254.02,1457.24 1257.60,1451.22 C1261.67,1444.44 1271.57,1432.63 1277.54,1427.77 C1280.56,1425.34 1286.89,1421.01 1290.34,1419.02 C1296.39,1415.57 1312.42,1410.19 1319.34,1409.16 Z" fill="none" stroke="rgb(0, 0, 0)" stroke-width="7.00" stroke-opacity="1.00" stroke-linejoin="round"/>
<path d="M1288.18,1336.32 L1288.70,1371.49" fill="none" stroke="rgb(0, 0, 0)" stroke-width="7.00" stroke-opacity="1.00" stroke-linejoin="round"/>
<path d="M1287.47,1622.73 L1288.06,1656.83" fill="none" stroke="rgb(0, 0, 0)" stroke-width="7.00" stroke-opacity="1.00" stroke-linejoin="round"/>
<path d="M1287.54,2437.30 L1287.58,2437.28" fill="none" stroke="rgb(0, 0, 0)" stroke-width="7.00" stroke-opacity="1.00" stroke-linejoin="round"/>
<path d="M1287.52,2437.38 L1287.53,2437.38" fill="none" stroke="rgb(0, 0, 0)" stroke-width="7.00" stroke-opacity="1.00" stroke-linejoin="round"/>
<path d="M1287.09,2437.20 L1286.36,2472.85" fill="none" stroke="rgb(0, 0, 0)" stroke-width="7.00" stroke-opacity="1.00" stroke-linejoin="round"/>
<path d="M1290.43,2761.64 L1289.78,2726.45" fill="none" stroke="rgb(0, 0, 0)" stroke-width="7.00" stroke-opacity="1.00" stroke-linejoin="round"/>
<path d="M1312.31,2511.73 C1319.39,2510.73 1336.64,2511.30 1343.57,2512.88 C1351.38,2514.70 1365.88,2520.58 1372.45,2524.83 C1375.74,2526.98 1381.90,2531.74 1384.91,2534.45 C1390.15,2539.22 1400.39,2553.00 1403.57,2559.35 C1406.72,2565.73 1411.51,2582.17 1412.13,2589.19 C1412.80,2597.12 1411.65,2612.62 1409.60,2620.12 C1408.55,2623.90 1405.89,2631.18 1404.22,2634.86 C1401.27,2641.27 1391.22,2655.19 1386.11,2660.15 C1380.97,2665.09 1366.68,2674.69 1360.14,2677.44 C1352.74,2680.52 1337.53,2684.22 1329.70,2684.61 C1325.75,2684.79 1317.95,2684.53 1313.91,2684.09 C1306.84,2683.29 1290.40,2678.11 1284.06,2674.82 C1277.73,2671.50 1264.11,2660.99 1259.45,2655.68 C1254.21,2649.65 1245.96,2636.44 1243.17,2629.17 C1241.78,2625.51 1239.61,2618.07 1238.78,2614.12 C1237.37,2607.21 1237.25,2590.09 1238.45,2583.10 C1239.68,2576.11 1245.55,2560.01 1249.21,2553.97 C1253.37,2547.16 1263.48,2535.30 1269.59,2530.42 C1272.67,2527.98 1279.14,2523.64 1282.67,2521.64 C1288.86,2518.17 1305.23,2512.77 1312.31,2511.73 Z" fill="none" stroke="rgb(0, 0, 0)" stroke-width="7.00" stroke-opacity="1.00" stroke-linejoin="round"/>
</g>
</svg>
