<?xml version="1.0" encoding="UTF-8" standalone="no"?>
<!DOCTYPE svg PUBLIC "-//W3C//DTD SVG 1.1//EN" "http://www.w3.org/Graphics/SVG/1.1/DTD/svg11.dtd">
<svg width="1440.00" height="960.00" viewBox="0.00 0.00 6000.00 4000.00" xmlns="http://www.w3.org/2000/svg" xmlns:xlink="http://www.w3.org/1999/xlink">
<g stroke-linecap="round" id="패키지트레이">
<path d="M3364.60,2864.97 Q3417.55,2966.11 3674.57,2965.44" fill="none" stroke="rgb(0, 0, 0)" stroke-width="7.00" stroke-opacity="1.00" stroke-linejoin="round"/>
<path d="M3981.40,2871.44 Q3981.21,2872.12 3981.02,2872.81 Q3922.39,2966.05 3675.61,2965.44" fill="none" stroke="rgb(0, 0, 0)" stroke-width="7.00" stroke-opacity="1.00" stroke-linejoin="round"/>
<path d="M3364.67,2864.47 Q3362.13,2855.23 3361.71,2833.53" fill="none" stroke="rgb(0, 0, 0)" stroke-width="7.00" stroke-opacity="1.00" stroke-linejoin="round"/>
<path d="M3361.77,2823.79 Q3361.44,2820.13 3361.12,2816.47" fill="none" stroke="rgb(0, 0, 0)" stroke-width="7.00" stroke-opacity="1.00" stroke-linejoin="round"/>
<path d="M3336.74,1733.84 Q3336.34,1733.62 3335.94,1733.40 Q3319.27,1738.31 3299.71,1744.92" fill="none" stroke="rgb(0, 0, 0)" stroke-width="7.00" stroke-opacity="1.00" stroke-linejoin="round"/>
<path d="M4013.12,1732.40 Q4029.21,1737.28 4047.88,1743.97" fill="none" stroke="rgb(0, 0, 0)" stroke-width="7.00" stroke-opacity="1.00" stroke-linejoin="round"/>
<path d="M3301.84,1743.97 Q3279.06,1767.03 3276.94,1789.91" fill="none" stroke="rgb(0, 0, 0)" stroke-width="7.00" stroke-opacity="1.00" stroke-linejoin="round"/>
<path d="M4046.05,1742.80 Q4068.56,1764.91 4070.81,1787.77" fill="none" stroke="rgb(0, 0, 0)" stroke-width="7.00" stroke-opacity="1.00" stroke-linejoin="round"/>
<path d="M3276.62,1789.67 Q3306.07,1786.66 3332.72,1778.19" fill="none" stroke="rgb(0, 0, 0)" stroke-width="7.00" stroke-opacity="1.00" stroke-linejoin="round"/>
<path d="M3344.16,1769.86 Q3344.20,1769.68 3344.25,1769.50" fill="none" stroke="rgb(0, 0, 0)" stroke-width="7.00" stroke-opacity="1.00" stroke-linejoin="round"/>
<path d="M4071.13,1787.53 Q4041.48,1784.67 4014.64,1776.25" fill="none" stroke="rgb(0, 0, 0)" stroke-width="7.00" stroke-opacity="1.00" stroke-linejoin="round"/>
<path d="M3368.09,2869.18 Q3338.86,2812.43 3333.79,1779.17" fill="none" stroke="rgb(0, 0, 0)" stroke-width="7.00" stroke-opacity="1.00" stroke-linejoin="round"/>
<path d="M3992.96,2832.64 Q4014.32,2666.47 4013.90,1777.34" fill="none" stroke="rgb(0, 0, 0)" stroke-width="7.00" stroke-opacity="1.00" stroke-linejoin="round"/>
<path d="M3338.76,1728.93 Q3338.59,1729.77 3338.42,1730.61" fill="none" stroke="rgb(0, 0, 0)" stroke-width="7.00" stroke-opacity="1.00" stroke-linejoin="round"/>
<path d="M3336.92,1732.63 Q3335.69,1469.51 3336.98,1419.01 Q3336.99,1418.56 3336.97,1417.68 Q3336.96,1416.79 3337.43,1412.93 Q3372.87,1239.24 3674.57,1232.97 Q3977.28,1239.90 4012.35,1413.66 Q4012.81,1417.53 4012.79,1418.41 Q4012.77,1419.29 4012.78,1419.74 Q4013.96,1470.24 4012.43,1732.25" fill="none" stroke="rgb(0, 0, 0)" stroke-width="7.00" stroke-opacity="1.00" stroke-linejoin="round"/>
<path d="M3992.53,2836.80 Q3987.93,2856.60 3981.89,2871.82" fill="none" stroke="rgb(0, 0, 0)" stroke-width="7.00" stroke-opacity="1.00" stroke-linejoin="round"/>
</g>
<g stroke-linecap="round" id="프론트패널(9)">
<path d="M3439.63,1339.07 Q3674.75,1339.07 3909.86,1339.07 Q3922.36,1339.07 3922.36,1351.57 Q3922.36,1375.51 3922.36,1399.45 Q3922.36,1411.95 3909.86,1411.95 Q3674.75,1411.95 3439.63,1411.95 Q3427.13,1411.95 3427.13,1399.45 Q3427.13,1375.51 3427.13,1351.57 Q3427.13,1339.07 3439.63,1339.07 Z" fill="none" stroke="rgb(0, 0, 0)" stroke-width="7.00" stroke-opacity="1.00" stroke-linejoin="round"/>
</g>
<g stroke-linecap="round" id="라디에이터서포트(5)">
<path d="M3540.64,1258.46 Q3677.09,1234.80 3810.20,1258.46 Q3822.70,1258.46 3822.70,1270.96 Q3823.75,1292.25 3822.70,1315.33 Q3822.70,1327.83 3810.20,1327.83 Q3675.42,1327.83 3540.64,1327.83 Q3528.14,1327.83 3528.14,1315.33 Q3528.14,1293.15 3528.14,1270.96 Q3528.14,1258.46 3540.64,1258.46 Z" fill="none" stroke="rgb(0, 0, 0)" stroke-width="7.00" stroke-opacity="1.00" stroke-linejoin="round"/>
</g>
<g stroke-linecap="round" id="인사이드패널(11)">
<path d="M3391.06,1425.15 Q3424.50,1425.15 3457.93,1425.15 Q3474.43,1425.15 3474.43,1437.65 Q3474.43,1512.68 3474.43,1587.71 Q3474.43,1600.21 3457.93,1600.21 Q3424.50,1600.21 3391.06,1600.21 Q3374.57,1600.21 3374.57,1587.71 Q3374.57,1512.68 3374.57,1437.65 Q3374.57,1425.15 3391.06,1425.15 Z" fill="none" stroke="rgb(0, 0, 0)" stroke-width="7.00" stroke-opacity="1.00" stroke-linejoin="round"/>
<path d="M3959.20,1425.89 Q3925.56,1425.83 3891.92,1425.76 Q3875.32,1425.73 3875.27,1438.23 Q3875.02,1513.26 3874.76,1588.29 Q3874.72,1600.79 3891.32,1600.82 Q3924.96,1600.88 3958.60,1600.95 Q3975.20,1600.98 3975.24,1588.48 Q3975.50,1513.45 3975.75,1438.43 Q3975.80,1425.93 3959.20,1425.89 Z" fill="none" stroke="rgb(0, 0, 0)" stroke-width="7.00" stroke-opacity="1.00" stroke-linejoin="round"/>
<path d="M3411.23,2599.40 Q3448.34,2599.40 3485.44,2599.40 Q3497.94,2599.40 3497.94,2611.01 Q3497.94,2674.78 3497.94,2738.55 Q3497.94,2750.15 3485.44,2750.15 Q3448.34,2750.15 3411.23,2750.15 Q3398.73,2750.15 3398.73,2738.55 Q3398.73,2674.78 3398.73,2611.01 Q3398.73,2599.40 3411.23,2599.40 Z" fill="none" stroke="rgb(0, 0, 0)" stroke-width="7.00" stroke-opacity="1.00" stroke-linejoin="round"/>
<path d="M3865.40,2600.08 Q3901.22,2600.08 3937.05,2600.08 Q3949.55,2600.08 3949.55,2611.82 Q3949.55,2675.12 3949.55,2738.41 Q3949.55,2750.15 3937.05,2750.15 Q3901.22,2750.15 3865.40,2750.15 Q3852.90,2750.15 3852.90,2738.41 Q3852.90,2675.12 3852.90,2611.82 Q3852.90,2600.08 3865.40,2600.08 Z" fill="none" stroke="rgb(0, 0, 0)" stroke-width="7.00" stroke-opacity="1.00" stroke-linejoin="round"/>
</g>
<g stroke-linecap="round" id="휠하우스(13)">
<path d="M3389.88,1612.38 Q3423.48,1612.38 3457.09,1612.39 Q3474.32,1612.40 3474.33,1623.82 Q3474.34,1668.68 3474.36,1713.54 Q3474.36,1724.95 3457.13,1724.95 Q3423.52,1724.94 3389.91,1724.93 Q3372.68,1724.92 3372.67,1713.51 Q3372.66,1668.65 3372.64,1623.79 Q3372.64,1612.37 3389.88,1612.38 Z" fill="none" stroke="rgb(0, 0, 0)" stroke-width="7.00" stroke-opacity="1.00" stroke-linejoin="round"/>
<path d="M3958.99,1613.11 Q3925.39,1613.03 3891.78,1612.95 Q3874.54,1612.91 3874.51,1624.33 Q3874.38,1669.19 3874.25,1714.05 Q3874.22,1725.47 3891.46,1725.51 Q3925.06,1725.58 3958.67,1725.66 Q3975.90,1725.70 3975.94,1714.28 Q3976.07,1669.42 3976.20,1624.56 Q3976.23,1613.15 3958.99,1613.11 Z" fill="none" stroke="rgb(0, 0, 0)" stroke-width="7.00" stroke-opacity="1.00" stroke-linejoin="round"/>
<path d="M3387.74,2450.21 Q3424.39,2450.21 3461.05,2450.21 Q3477.09,2450.21 3477.09,2462.71 Q3477.09,2518.34 3477.09,2573.97 Q3477.09,2586.47 3461.05,2586.47 Q3424.39,2586.47 3387.74,2586.47 Q3371.69,2586.47 3371.69,2573.97 Q3371.69,2518.34 3371.69,2462.71 Q3371.69,2450.21 3387.74,2450.21 Z" fill="none" stroke="rgb(0, 0, 0)" stroke-width="7.00" stroke-opacity="1.00" stroke-linejoin="round"/>
<path d="M3958.98,2450.95 Q3922.32,2450.85 3885.67,2450.76 Q3869.62,2450.72 3869.59,2463.22 Q3869.45,2518.85 3869.31,2574.48 Q3869.27,2586.98 3885.32,2587.02 Q3921.97,2587.11 3958.63,2587.21 Q3974.68,2587.25 3974.71,2574.75 Q3974.85,2519.12 3974.99,2463.49 Q3975.03,2450.99 3958.98,2450.95 Z" fill="none" stroke="rgb(0, 0, 0)" stroke-width="7.00" stroke-opacity="1.00" stroke-linejoin="round"/>
</g>
<g stroke-linecap="round" id="사이드멤버(12)">
<path d="M3514.72,1425.22 Q3551.19,1425.23 3587.66,1425.23 Q3600.16,1425.23 3600.17,1437.31 Q3600.18,1575.24 3600.19,1713.18 Q3600.19,1725.26 3587.69,1725.26 Q3551.22,1725.25 3514.75,1725.25 Q3502.25,1725.25 3502.25,1713.17 Q3502.24,1575.24 3502.22,1437.30 Q3502.22,1425.22 3514.72,1425.22 Z" fill="none" stroke="rgb(0, 0, 0)" stroke-width="7.00" stroke-opacity="1.00" stroke-linejoin="round"/>
<path d="M3834.63,1425.63 Q3798.16,1425.54 3761.69,1425.45 Q3749.19,1425.42 3749.15,1437.50 Q3748.79,1575.44 3748.42,1713.37 Q3748.39,1725.45 3760.89,1725.48 Q3797.36,1725.57 3833.83,1725.66 Q3846.33,1725.69 3846.36,1713.61 Q3846.73,1575.68 3847.10,1437.74 Q3847.13,1425.67 3834.63,1425.63 Z" fill="none" stroke="rgb(0, 0, 0)" stroke-width="7.00" stroke-opacity="1.00" stroke-linejoin="round"/>
</g>
<g stroke-linecap="round" id="크로스멤버(10)">
<path d="M3387.36,1749.67 Q3675.17,1749.67 3962.98,1749.67 Q3975.48,1749.67 3975.48,1761.18 Q3975.48,1787.99 3975.48,1814.80 Q3975.48,1826.30 3962.98,1826.30 Q3675.17,1826.30 3387.36,1826.30 Q3374.86,1826.30 3374.86,1814.80 Q3374.86,1787.99 3374.86,1761.18 Q3374.86,1749.67 3387.36,1749.67 Z" fill="none" stroke="rgb(0, 0, 0)" stroke-width="7.00" stroke-opacity="1.00" stroke-linejoin="round"/>
</g>
<g stroke-linecap="round" id="대쉬패널(15)">
<path d="M3411.44,1848.68 Q3674.35,1848.68 3937.26,1848.68 Q3949.76,1848.68 3949.76,1859.28 Q3949.76,1888.89 3949.76,1918.49 Q3949.76,1929.09 3937.26,1929.09 Q3674.35,1929.09 3411.44,1929.09 Q3398.94,1929.09 3398.94,1918.49 Q3398.94,1888.89 3398.94,1859.28 Q3398.94,1848.68 3411.44,1848.68 Z" fill="none" stroke="rgb(0, 0, 0)" stroke-width="7.00" stroke-opacity="1.00" stroke-linejoin="round"/>
</g>
<g stroke-linecap="round" id="플로어패널(16)">
<path d="M3411.44,1949.79 Q3674.35,1949.79 3937.26,1949.79 Q3949.76,1949.79 3949.76,1961.68 Q3949.76,2111.35 3949.76,2261.03 Q3949.76,2272.92 3937.26,2272.92 Q3674.35,2272.92 3411.44,2272.92 Q3398.94,2272.92 3398.94,2261.03 Q3398.94,2111.35 3398.94,1961.68 Q3398.94,1949.79 3411.44,1949.79 Z" fill="none" stroke="rgb(0, 0, 0)" stroke-width="7.00" stroke-opacity="1.00" stroke-linejoin="round"/>
</g>
<g stroke-linecap="round" id="트렁크플로어(17)">
<path d="M3536.56,2449.96 Q3666.38,2449.96 3796.20,2449.96 Q3808.70,2449.96 3808.70,2462.17 Q3808.70,2600.06 3808.70,2737.95 Q3808.70,2750.15 3796.20,2750.15 Q3666.38,2750.15 3536.56,2750.15 Q3524.06,2750.15 3524.06,2737.95 Q3524.06,2600.06 3524.06,2462.17 Q3524.06,2449.96 3536.56,2449.96 Z" fill="none" stroke="rgb(0, 0, 0)" stroke-width="7.00" stroke-opacity="1.00" stroke-linejoin="round"/>
</g>
<g stroke-linecap="round" id="리어패널(18)">
<path d="M3411.44,2791.15 Q3674.35,2791.15 3937.26,2791.15 Q3949.76,2791.15 3949.76,2808.12 Q3949.76,2835.08 3949.76,2862.04 Q3949.76,2879.00 3937.26,2879.00 Q3674.35,2879.00 3411.44,2879.00 Q3398.94,2879.00 3398.94,2862.04 Q3398.94,2835.08 3398.94,2808.12 Q3398.94,2791.15 3411.44,2791.15 Z" fill="none" stroke="rgb(0, 0, 0)" stroke-width="7.00" stroke-opacity="1.00" stroke-linejoin="round"/>
</g>
</svg>
