<?xml version="1.0" encoding="UTF-8" standalone="no"?>
<!DOCTYPE svg PUBLIC "-//W3C//DTD SVG 1.1//EN" "http://www.w3.org/Graphics/SVG/1.1/DTD/svg11.dtd">
<svg width="1440.00" height="960.00" viewBox="0.00 0.00 6000.00 4000.00" xmlns="http://www.w3.org/2000/svg" xmlns:xlink="http://www.w3.org/1999/xlink">
<g stroke-linecap="round" id="후드(1)">
<path d="M2236.57,1627.51 Q1976.75,1632.25 1940.87,1701.59 Q1939.75,1705.90 1939.04,1705.89 Q1932.68,1705.84 1898.92,1714.63 Q1897.69,1451.51 1898.98,1401.01 Q1898.99,1400.56 1898.97,1399.68 Q1898.96,1398.79 1899.43,1394.93 Q1934.87,1221.24 2236.57,1214.97 Q2539.28,1221.90 2574.35,1395.66 Q2574.81,1399.53 2574.79,1400.41 Q2574.77,1401.29 2574.78,1401.74 Q2575.96,1452.24 2574.43,1714.25 Q2543.03,1704.76 2532.64,1703.67 Q2532.59,1703.97 2532.24,1702.23 Q2496.51,1632.82 2236.70,1627.51" fill="none" stroke="rgb(0, 0, 0)" stroke-width="7.00" stroke-opacity="1.00" stroke-linejoin="round"/>
</g>
</svg>
