<?xml version="1.0" encoding="UTF-8" standalone="no"?>
<!DOCTYPE svg PUBLIC "-//W3C//DTD SVG 1.1//EN" "http://www.w3.org/Graphics/SVG/1.1/DTD/svg11.dtd">
<svg width="1440.00" height="960.00" viewBox="0.00 0.00 6000.00 4000.00" xmlns="http://www.w3.org/2000/svg" xmlns:xlink="http://www.w3.org/1999/xlink">
<g stroke-linecap="round" transform="translate(1434.00, 4.00)" id="도어(3)_복사">
<path d="M1398.14,1688.81 Q1387.58,1921.85 1379.04,2154.30 Q1378.78,2158.75 1378.51,2163.20 Q1378.39,2163.68 1378.28,2164.17 Q1371.24,2336.56 1367.10,2510.59 Q1367.38,2520.74 1367.26,2536.91 Q1367.13,2553.09 1366.95,2569.04 Q1366.78,2584.99 1366.47,2610.09 Q1459.82,2552.89 1547.46,2525.06 Q1551.34,2523.83 1553.76,2522.98 Q1556.19,2522.13 1556.44,2521.42 Q1583.20,2465.91 1668.87,2442.51 Q1675.52,2068.17 1682.94,1693.85 Q1494.83,1676.98 1398.14,1688.81 Z" fill="none" stroke="rgb(0, 0, 0)" stroke-width="7.00" stroke-opacity="1.00" stroke-linejoin="round"/>
<path d="M1676.31,2161.44 Q1516.11,2150.84 1380.11,2163.93" fill="none" stroke="rgb(0, 0, 0)" stroke-width="7.00" stroke-opacity="1.00" stroke-linejoin="round"/>
<path d="M1679.33,2161.60 C1679.33,2161.60 1679.40,2161.60 1679.40,2161.60 C1679.40,2161.60 1679.38,2161.48 1679.38,2161.48 C1679.38,2161.48 1679.65,2164.33 1679.65,2164.33 C1679.65,2164.33 1678.94,2159.62 1678.94,2159.62 C1678.94,2159.62 1679.44,2164.32 1679.44,2164.32 C1679.64,2163.97 1679.74,2159.87 1679.64,2159.72 C1679.63,2159.71 1679.62,2159.69 1679.61,2159.66 C1679.61,2159.66 1679.27,2164.97 1679.27,2164.97 C1679.27,2164.97 1678.72,2159.60 1678.72,2159.60 C1678.72,2159.60 1679.27,2165.57 1679.27,2165.57 C1679.27,2165.57 1678.61,2160.38 1678.61,2160.38 C1678.60,2160.60 1678.98,2163.38 1679.15,2165.44 C1679.20,2165.96 1679.29,2166.36 1679.37,2166.54" fill="none" stroke="rgb(255, 255, 255)" stroke-width="0.70" stroke-opacity="1.00" stroke-linejoin="round"/>
<path d="M1678.68,2164.66 C1678.68,2164.66 1679.00,2166.05 1679.00,2166.05 C1679.00,2166.05 1678.55,2161.88 1678.55,2161.88 C1678.55,2161.88 1678.37,2165.68 1678.37,2165.68 C1678.37,2165.68 1678.61,2162.29 1678.61,2162.29 C1678.61,2162.29 1678.54,2165.71 1678.54,2165.71 C1678.54,2165.71 1678.09,2160.59 1678.09,2160.59 C1678.09,2160.59 1678.36,2165.37 1678.36,2165.37 C1678.36,2165.37 1678.31,2161.86 1678.31,2161.86 C1678.31,2161.86 1678.32,2165.28 1678.32,2165.28 C1678.32,2165.28 1677.85,2161.78 1677.85,2161.78 C1677.85,2161.78 1677.99,2163.33 1677.99,2163.33 C1677.99,2163.33 1677.66,2161.95 1677.66,2161.95 C1677.66,2161.95 1677.95,2163.24 1677.95,2163.24 C1677.95,2163.24 1677.67,2160.69 1677.67,2160.69 C1677.67,2160.69 1677.95,2162.64 1677.95,2162.64 C1677.95,2162.64 1677.86,2159.34 1677.86,2159.34 C1677.86,2159.34 1678.08,2163.57 1678.08,2163.57 C1678.08,2163.57 1677.76,2158.62 1677.76,2158.62 C1677.76,2158.62 1678.52,2163.67 1678.52,2163.67 C1678.52,2163.67 1678.00,2158.10 1678.00,2158.10 C1678.00,2158.10 1678.35,2166.22 1678.35,2166.22 C1678.35,2166.22 1678.36,2163.01 1678.36,2163.01 C1678.36,2163.01 1678.34,2166.22 1678.34,2166.22 C1678.34,2166.22 1678.06,2163.50 1678.06,2163.50 C1678.06,2163.50 1678.12,2165.90 1678.12,2165.90 C1678.12,2165.90 1677.98,2163.73 1677.98,2163.73 C1677.98,2163.73 1678.02,2165.53 1678.02,2165.53 C1678.02,2165.53 1677.75,2163.68 1677.75,2163.68 C1677.75,2163.68 1677.91,2165.40 1677.91,2165.40 C1677.91,2165.40 1677.64,2163.41 1677.64,2163.41 C1677.64,2163.41 1677.68,2164.91 1677.68,2164.91 C1677.68,2164.91 1679.33,2162.79 1679.33,2162.79 C1679.74,2162.88 1680.04,2162.88 1680.13,2162.90 C1680.19,2162.91 1680.51,2163.17 1680.67,2163.30 C1680.70,2163.33 1680.71,2163.34 1680.71,2163.34" fill="none" stroke="rgb(255, 255, 255)" stroke-width="0.70" stroke-opacity="1.00" stroke-linejoin="round"/>
</g>
</svg>
