<?xml version="1.0" encoding="UTF-8" standalone="no"?>
<!DOCTYPE svg PUBLIC "-//W3C//DTD SVG 1.1//EN" "http://www.w3.org/Graphics/SVG/1.1/DTD/svg11.dtd">
<svg width="1440.00" height="960.00" viewBox="0.00 0.00 6000.00 4000.00" xmlns="http://www.w3.org/2000/svg" xmlns:xlink="http://www.w3.org/1999/xlink">
<g stroke-linecap="round" transform="translate(1434.00, 4.00)" id="범퍼(2)_복사">
<path d="M1738.94,1337.64 Q1618.52,1325.78 1571.55,1393.93 Q1499.15,1499.87 1564.10,1596.15 Q1566.37,1599.10 1568.65,1602.04 Q1605.94,1648.25 1681.85,1655.52 Q1682.14,1675.50 1682.43,1695.48 Q1507.73,1674.98 1399.24,1689.21 Q1396.15,1687.37 1393.06,1685.52 Q1385.61,1679.06 1378.16,1672.59 Q1376.66,1671.10 1375.17,1669.61 Q1391.35,1469.57 1465.89,1273.11 Q1465.95,1272.72 1466.23,1272.16 Q1466.50,1271.60 1468.46,1269.04 Q1470.43,1266.47 1470.43,1266.47 Q1485.18,1249.67 1520.87,1235.71 Q1522.70,1234.83 1524.53,1233.96 Q1585.20,1214.28 1682.74,1216.73 Q1725.35,1221.62 1737.12,1258.32 Q1736.93,1260.85 1737.95,1263.80 Q1741.07,1302.28 1738.94,1337.64 Z" fill="none" stroke="rgb(0, 0, 0)" stroke-width="7.00" stroke-opacity="1.00" stroke-linejoin="round"/>
<path d="M1534.20,1232.63 Q1531.71,1280.42 1529.22,1328.22 Q1529.00,1332.62 1528.85,1335.01 Q1528.71,1337.39 1528.63,1337.75 Q1526.45,1350.06 1493.06,1359.73 Q1492.26,1359.97 1489.28,1356.59 Q1477.85,1333.20 1509.47,1239.51" fill="none" stroke="rgb(0, 0, 0)" stroke-width="7.00" stroke-opacity="1.00" stroke-linejoin="round"/>
<path d="M1505.95,1240.69 L1505.90,1240.70" fill="none" stroke="rgb(0, 0, 0)" stroke-width="4.00" stroke-opacity="1.00" stroke-linejoin="round"/>
<path d="M1506.09,1240.43 L1506.09,1240.38" fill="none" stroke="rgb(0, 0, 0)" stroke-width="4.00" stroke-opacity="1.00" stroke-linejoin="round"/>
<path d="M1510.69,1238.59 L1510.67,1238.60" fill="none" stroke="rgb(0, 0, 0)" stroke-width="4.00" stroke-opacity="1.00" stroke-linejoin="round"/>
<path d="M1511.42,1238.10 L1511.37,1238.09" fill="none" stroke="rgb(0, 0, 0)" stroke-width="4.00" stroke-opacity="1.00" stroke-linejoin="round"/>
<path d="M1511.86,1237.93 L1511.82,1237.90" fill="none" stroke="rgb(0, 0, 0)" stroke-width="4.00" stroke-opacity="1.00" stroke-linejoin="round"/>
<path d="M1512.60,1237.66 L1512.58,1237.58" fill="none" stroke="rgb(0, 0, 0)" stroke-width="4.00" stroke-opacity="1.00" stroke-linejoin="round"/>
<path d="M1514.04,1237.20 L1514.04,1237.13" fill="none" stroke="rgb(0, 0, 0)" stroke-width="4.00" stroke-opacity="1.00" stroke-linejoin="round"/>
<path d="M1514.67,1236.78 L1514.62,1236.75" fill="none" stroke="rgb(0, 0, 0)" stroke-width="4.00" stroke-opacity="1.00" stroke-linejoin="round"/>
<path d="M1510.67,1238.53 L1510.48,1238.53" fill="none" stroke="rgb(0, 0, 0)" stroke-width="4.00" stroke-opacity="1.00" stroke-linejoin="round"/>
<path d="M1510.90,1237.96 L1510.86,1237.90" fill="none" stroke="rgb(0, 0, 0)" stroke-width="4.00" stroke-opacity="1.00" stroke-linejoin="round"/>
<path d="M1512.48,1237.54 L1512.47,1237.56" fill="none" stroke="rgb(0, 0, 0)" stroke-width="4.00" stroke-opacity="1.00" stroke-linejoin="round"/>
<path d="M1513.33,1237.49 L1513.31,1237.39" fill="none" stroke="rgb(0, 0, 0)" stroke-width="4.00" stroke-opacity="1.00" stroke-linejoin="round"/>
<path d="M1513.17,1237.11 L1513.14,1237.04" fill="none" stroke="rgb(0, 0, 0)" stroke-width="4.00" stroke-opacity="1.00" stroke-linejoin="round"/>
<path d="M1513.11,1237.15 L1513.07,1237.09" fill="none" stroke="rgb(0, 0, 0)" stroke-width="4.00" stroke-opacity="1.00" stroke-linejoin="round"/>
<path d="M1514.89,1237.11 L1514.95,1236.99" fill="none" stroke="rgb(0, 0, 0)" stroke-width="4.00" stroke-opacity="1.00" stroke-linejoin="round"/>
<path d="M1515.04,1236.29 L1514.93,1236.28" fill="none" stroke="rgb(0, 0, 0)" stroke-width="4.00" stroke-opacity="1.00" stroke-linejoin="round"/>
<path d="M1515.28,1236.15 L1515.29,1236.10" fill="none" stroke="rgb(0, 0, 0)" stroke-width="4.00" stroke-opacity="1.00" stroke-linejoin="round"/>
<path d="M1516.83,1235.89 L1516.86,1235.80" fill="none" stroke="rgb(0, 0, 0)" stroke-width="4.00" stroke-opacity="1.00" stroke-linejoin="round"/>
<path d="M1517.53,1235.50 L1517.51,1235.44" fill="none" stroke="rgb(0, 0, 0)" stroke-width="4.00" stroke-opacity="1.00" stroke-linejoin="round"/>
<path d="M1518.10,1234.87 L1518.08,1234.80" fill="none" stroke="rgb(0, 0, 0)" stroke-width="4.00" stroke-opacity="1.00" stroke-linejoin="round"/>
<path d="M1519.14,1234.50 L1519.12,1234.44" fill="none" stroke="rgb(0, 0, 0)" stroke-width="4.00" stroke-opacity="1.00" stroke-linejoin="round"/>
<path d="M1520.03,1234.31 L1520.02,1234.22" fill="none" stroke="rgb(0, 0, 0)" stroke-width="4.00" stroke-opacity="1.00" stroke-linejoin="round"/>
<path d="M1520.79,1233.95 L1520.73,1233.87" fill="none" stroke="rgb(0, 0, 0)" stroke-width="4.00" stroke-opacity="1.00" stroke-linejoin="round"/>
</g>
</svg>
