<?xml version="1.0" encoding="UTF-8" standalone="no"?>
<!DOCTYPE svg PUBLIC "-//W3C//DTD SVG 1.1//EN" "http://www.w3.org/Graphics/SVG/1.1/DTD/svg11.dtd">
<svg width="1440.00" height="960.00" viewBox="0.00 0.00 6000.00 4000.00" xmlns="http://www.w3.org/2000/svg" xmlns:xlink="http://www.w3.org/1999/xlink">
<g stroke-linecap="round" transform="translate(1434.00, 4.00)" id="사이드실패널(8)_복사">
<path d="M1739.53,1655.35 C1722.83,1655.26 1697.67,1655.21 1689.19,1655.26 C1683.56,1655.42 1682.56,1655.83 1682.61,1656.97 C1682.68,1657.84 1683.47,1659.88 1683.36,1662.07 C1682.42,1694.78 1681.40,1729.97 1680.85,1762.90 C1680.58,1778.67 1680.00,1813.47 1679.68,1832.50 C1679.40,1849.21 1678.80,1885.07 1678.48,1904.22 C1678.17,1923.17 1677.54,1960.48 1677.23,1978.84 C1676.93,1997.21 1676.32,2033.30 1676.02,2051.03 C1675.61,2073.17 1674.80,2116.60 1674.39,2137.89 C1673.94,2160.31 1673.10,2202.60 1672.70,2222.47 C1672.27,2243.81 1671.40,2287.34 1670.96,2309.53 C1670.54,2330.88 1669.73,2372.74 1669.34,2393.25 C1669.00,2412.01 1668.58,2435.63 1668.50,2440.49 C1671.97,2442.15 1674.46,2442.55 1677.51,2441.71 C1679.04,2441.33 1702.49,2438.78 1710.85,2438.20 C1719.22,2437.83 1730.76,2437.61 1740.22,2437.75 C1740.18,2416.89 1740.10,2370.83 1740.05,2345.65 C1740.00,2316.15 1739.89,2252.82 1739.82,2219.00 C1739.76,2180.86 1739.61,2100.27 1739.53,2057.81 C1739.46,2014.34 1739.31,1931.65 1739.24,1892.43 C1739.17,1857.53 1739.06,1792.05 1739.00,1761.47 C1738.95,1735.20 1738.87,1686.99 1738.83,1665.05 C1738.82,1662.61 1738.81,1657.79 1738.81,1655.42" fill="none" stroke="rgb(0, 0, 0)" stroke-width="7.00" stroke-opacity="1.00" stroke-linejoin="round"/>
</g>
</svg>
