<?xml version="1.0" encoding="UTF-8" standalone="no"?>
<!DOCTYPE svg PUBLIC "-//W3C//DTD SVG 1.1//EN" "http://www.w3.org/Graphics/SVG/1.1/DTD/svg11.dtd">
<svg width="1440.00" height="960.00" viewBox="0.00 0.00 6000.00 4000.00" xmlns="http://www.w3.org/2000/svg" xmlns:xlink="http://www.w3.org/1999/xlink">
<g stroke-linecap="round" transform="translate(1434.00, 4.00)" id="타이어(우)">
<path d="M1711.94,1365.76 C1705.49,1364.83 1689.45,1364.42 1681.93,1365.00 C1673.53,1365.66 1659.70,1368.70 1652.70,1370.99 C1645.45,1373.38 1631.81,1379.49 1625.46,1383.42 C1619.09,1387.38 1607.20,1396.59 1601.61,1401.88 C1596.89,1406.38 1586.86,1418.92 1582.71,1425.34 C1578.11,1432.50 1572.34,1444.30 1569.52,1452.33 C1567.00,1459.57 1563.25,1475.24 1562.59,1481.76 C1561.84,1489.46 1561.84,1504.59 1562.60,1512.10 C1563.38,1519.58 1566.89,1534.22 1569.42,1541.48 C1571.88,1548.49 1577.92,1561.41 1582.51,1568.55 C1586.63,1574.92 1596.72,1587.52 1601.38,1592.12 C1606.05,1596.70 1618.80,1606.55 1625.21,1610.55 C1632.39,1614.99 1645.35,1620.75 1652.35,1623.05 C1659.61,1625.42 1674.20,1628.57 1681.62,1629.16 C1689.08,1629.73 1704.06,1629.34 1711.66,1628.38 C1718.10,1627.54 1733.51,1623.34 1740.62,1620.61 C1748.50,1617.55 1760.03,1611.43 1767.00,1606.60 C1773.25,1602.24 1785.40,1591.79 1789.73,1586.91 C1794.83,1581.13 1803.63,1568.88 1807.39,1562.36 C1811.11,1555.84 1816.80,1541.91 1818.98,1534.54 C1821.07,1527.41 1823.71,1513.37 1824.14,1504.87 C1824.52,1497.27 1823.70,1481.09 1822.60,1474.61 C1821.49,1468.12 1816.91,1452.59 1814.05,1445.55 C1810.83,1437.69 1803.70,1425.35 1799.37,1419.33 C1794.88,1413.11 1784.91,1401.90 1779.25,1397.02 C1773.55,1392.13 1761.20,1383.56 1754.49,1379.82 C1748.79,1376.68 1733.88,1370.93 1726.54,1368.92 C1722.90,1367.94 1714.76,1366.18 1711.94,1365.76 Z" fill="none" stroke="rgb(0, 0, 0)" stroke-width="7.00" stroke-opacity="1.00" stroke-linejoin="round"/>
<path d="M1717.94,2467.76 C1711.49,2466.83 1695.45,2466.42 1687.93,2467.00 C1679.53,2467.66 1665.70,2470.70 1658.70,2472.99 C1651.45,2475.38 1637.81,2481.49 1631.46,2485.42 C1625.09,2489.38 1613.20,2498.59 1607.61,2503.88 C1602.89,2508.38 1592.86,2520.92 1588.71,2527.34 C1584.11,2534.50 1578.34,2546.30 1575.52,2554.33 C1573.00,2561.57 1569.25,2577.24 1568.59,2583.76 C1567.84,2591.46 1567.84,2606.59 1568.60,2614.10 C1569.38,2621.58 1572.89,2636.22 1575.42,2643.48 C1577.88,2650.49 1583.92,2663.41 1588.51,2670.55 C1592.63,2676.92 1602.72,2689.52 1607.38,2694.12 C1612.05,2698.70 1624.80,2708.55 1631.21,2712.55 C1638.39,2716.99 1651.35,2722.75 1658.35,2725.05 C1665.61,2727.42 1680.20,2730.57 1687.62,2731.16 C1695.08,2731.73 1710.06,2731.34 1717.66,2730.38 C1724.10,2729.54 1739.51,2725.34 1746.62,2722.61 C1754.50,2719.55 1766.03,2713.43 1773.00,2708.60 C1779.25,2704.24 1791.40,2693.79 1795.73,2688.91 C1800.83,2683.13 1809.63,2670.88 1813.39,2664.36 C1817.11,2657.84 1822.80,2643.91 1824.98,2636.54 C1827.07,2629.41 1829.71,2615.37 1830.14,2606.87 C1830.52,2599.27 1829.70,2583.09 1828.60,2576.61 C1827.49,2570.12 1822.91,2554.59 1820.05,2547.55 C1816.83,2539.69 1809.70,2527.35 1805.37,2521.33 C1800.88,2515.11 1790.91,2503.90 1785.25,2499.02 C1779.55,2494.13 1767.20,2485.56 1760.49,2481.82 C1754.79,2478.68 1739.88,2472.93 1732.54,2470.92 C1728.90,2469.94 1720.76,2468.18 1717.94,2467.76 Z" fill="none" stroke="rgb(0, 0, 0)" stroke-width="7.00" stroke-opacity="1.00" stroke-linejoin="round"/>
<path d="M1707.66,1409.16 C1700.73,1408.16 1683.85,1408.72 1677.08,1410.30 C1669.44,1412.11 1655.25,1417.96 1648.83,1422.20 C1645.61,1424.34 1639.57,1429.08 1636.63,1431.78 C1631.51,1436.53 1621.49,1450.25 1618.38,1456.58 C1615.30,1462.93 1610.61,1479.31 1610.00,1486.30 C1609.35,1494.20 1610.48,1509.63 1612.48,1517.10 C1613.51,1520.86 1616.11,1528.12 1617.74,1531.78 C1620.63,1538.16 1630.46,1552.02 1635.46,1556.97 C1640.49,1561.88 1654.47,1571.44 1660.87,1574.19 C1668.11,1577.26 1682.99,1580.94 1690.65,1581.33 C1694.51,1581.50 1702.15,1581.25 1706.10,1580.81 C1713.01,1580.01 1729.10,1574.86 1735.30,1571.58 C1741.49,1568.28 1754.81,1557.81 1759.38,1552.51 C1764.50,1546.51 1772.57,1533.36 1775.31,1526.12 C1776.66,1522.47 1778.78,1515.06 1779.59,1511.12 C1780.98,1504.24 1781.09,1487.20 1779.92,1480.23 C1778.72,1473.27 1772.98,1457.24 1769.40,1451.22 C1765.33,1444.44 1755.43,1432.63 1749.46,1427.77 C1746.44,1425.34 1740.11,1421.01 1736.66,1419.02 C1730.61,1415.57 1714.58,1410.19 1707.66,1409.16 Z" fill="none" stroke="rgb(0, 0, 0)" stroke-width="7.00" stroke-opacity="1.00" stroke-linejoin="round"/>
<path d="M1738.82,1336.32 L1738.30,1371.49" fill="none" stroke="rgb(0, 0, 0)" stroke-width="7.00" stroke-opacity="1.00" stroke-linejoin="round"/>
<path d="M1739.53,1622.73 L1738.94,1656.83" fill="none" stroke="rgb(0, 0, 0)" stroke-width="7.00" stroke-opacity="1.00" stroke-linejoin="round"/>
<path d="M1739.46,2437.30 L1739.42,2437.28" fill="none" stroke="rgb(0, 0, 0)" stroke-width="7.00" stroke-opacity="1.00" stroke-linejoin="round"/>
<path d="M1739.48,2437.38 L1739.47,2437.38" fill="none" stroke="rgb(0, 0, 0)" stroke-width="7.00" stroke-opacity="1.00" stroke-linejoin="round"/>
<path d="M1739.91,2437.20 L1740.64,2472.85" fill="none" stroke="rgb(0, 0, 0)" stroke-width="7.00" stroke-opacity="1.00" stroke-linejoin="round"/>
<path d="M1736.57,2761.64 L1737.22,2726.45" fill="none" stroke="rgb(0, 0, 0)" stroke-width="7.00" stroke-opacity="1.00" stroke-linejoin="round"/>
<path d="M1714.69,2511.73 C1707.61,2510.73 1690.36,2511.30 1683.43,2512.88 C1675.62,2514.70 1661.12,2520.58 1654.55,2524.83 C1651.26,2526.98 1645.10,2531.74 1642.09,2534.45 C1636.85,2539.22 1626.61,2553.00 1623.43,2559.35 C1620.28,2565.73 1615.49,2582.17 1614.87,2589.19 C1614.20,2597.12 1615.35,2612.62 1617.40,2620.12 C1618.45,2623.90 1621.11,2631.18 1622.78,2634.86 C1625.73,2641.27 1635.78,2655.19 1640.89,2660.15 C1646.03,2665.09 1660.32,2674.69 1666.86,2677.44 C1674.26,2680.52 1689.47,2684.22 1697.30,2684.61 C1701.25,2684.79 1709.05,2684.53 1713.09,2684.09 C1720.16,2683.29 1736.60,2678.11 1742.94,2674.82 C1749.27,2671.50 1762.89,2660.99 1767.55,2655.68 C1772.79,2649.65 1781.04,2636.44 1783.83,2629.17 C1785.22,2625.51 1787.39,2618.07 1788.22,2614.12 C1789.63,2607.21 1789.75,2590.09 1788.55,2583.10 C1787.32,2576.11 1781.45,2560.01 1777.79,2553.97 C1773.63,2547.16 1763.52,2535.30 1757.41,2530.42 C1754.33,2527.98 1747.86,2523.64 1744.33,2521.64 C1738.14,2518.17 1721.77,2512.77 1714.69,2511.73 Z" fill="none" stroke="rgb(0, 0, 0)" stroke-width="7.00" stroke-opacity="1.00" stroke-linejoin="round"/>
</g>
</svg>
