<?xml version="1.0" encoding="UTF-8" standalone="no"?>
<!DOCTYPE svg PUBLIC "-//W3C//DTD SVG 1.1//EN" "http://www.w3.org/Graphics/SVG/1.1/DTD/svg11.dtd">
<svg width="1440.00" height="960.00" viewBox="0.00 0.00 6000.00 4000.00" xmlns="http://www.w3.org/2000/svg" xmlns:xlink="http://www.w3.org/1999/xlink">
<g stroke-linecap="round" transform="translate(1434.00, 4.00)" id="필러패널(14)_복사">
<path d="M1212.00,2147.61 L1375.76,2138.59" fill="none" stroke="rgb(0, 0, 0)" stroke-width="7.00" stroke-opacity="1.00" stroke-linejoin="round"/>
<path d="M1250.08,2141.74 Q1241.94,1980.65 1397.32,1689.59 Q1397.34,1689.38 1396.33,1688.37 Q1395.32,1687.37 1393.58,1685.66 Q1384.90,1677.31 1376.21,1668.97 Q1325.82,1771.00 1275.43,1873.04 Q1275.05,1873.83 1274.42,1874.90 Q1273.79,1875.98 1271.52,1880.23 Q1224.80,1974.66 1215.41,2062.15 Q1214.46,2066.73 1213.52,2071.32 Q1212.60,2108.61 1211.68,2145.89 Q1211.68,2146.07 1211.62,2146.24 Q1210.85,2173.04 1210.15,2199.85 Q1291.99,2201.05 1374.59,2202.27" fill="none" stroke="rgb(0, 0, 0)" stroke-width="7.00" stroke-opacity="1.00" stroke-linejoin="round"/>
<path d="M1216.23,2070.16 L1216.02,2070.63" fill="none" stroke="rgb(0, 0, 0)" stroke-width="1.50" stroke-opacity="1.00" stroke-linejoin="round"/>
<path d="M1216.46,2071.50 L1216.39,2071.40" fill="none" stroke="rgb(0, 0, 0)" stroke-width="1.50" stroke-opacity="1.00" stroke-linejoin="round"/>
<path d="M1210.29,2069.10 C1210.33,2069.27 1210.34,2069.50 1210.31,2069.78 C1210.12,2071.87 1208.94,2076.84 1208.89,2077.81 C1208.89,2077.81 1210.92,2069.47 1210.92,2069.47 C1210.92,2069.47 1209.52,2077.64 1209.52,2077.64 C1209.52,2077.64 1210.85,2067.11 1210.85,2067.11 C1210.85,2067.11 1209.70,2075.69 1209.70,2075.69 C1209.70,2075.69 1210.68,2066.33 1210.68,2066.33 C1210.68,2066.33 1208.99,2077.91 1208.99,2077.91 C1208.99,2077.91 1210.58,2068.08 1210.58,2068.08 C1210.73,2068.44 1209.18,2072.71 1208.60,2075.17 C1208.00,2077.78 1207.58,2082.03 1207.52,2082.30 C1207.52,2082.30 1209.87,2067.74 1209.87,2067.74 C1209.78,2068.46 1196.60,2085.78 1195.04,2088.22 C1194.44,2089.19 1194.45,2089.81 1195.19,2089.28 C1196.23,2088.50 1207.62,2077.32 1208.06,2077.10 C1208.85,2076.76 1207.82,2079.78 1207.54,2080.74 C1207.41,2081.17 1207.35,2081.76 1207.35,2082.51 C1207.35,2082.51 1210.06,2063.16 1210.06,2063.16 C1210.06,2063.16 1206.98,2081.48 1206.98,2081.48 C1206.98,2081.48 1210.70,2060.79 1210.70,2060.79 C1210.70,2060.79 1206.77,2077.68 1206.77,2077.68 C1206.77,2077.68 1210.13,2057.28 1210.13,2057.28 C1210.13,2057.28 1206.45,2075.05 1206.45,2075.05 C1206.45,2075.05 1209.97,2055.60 1209.97,2055.60 C1209.97,2055.60 1205.71,2075.14 1205.71,2075.14 C1205.71,2075.14 1207.92,2058.12 1207.92,2058.12 C1207.92,2058.12 1205.96,2071.40 1205.96,2071.40 C1205.96,2071.40 1208.93,2052.98 1208.93,2052.98 C1208.93,2052.98 1205.70,2066.84 1205.70,2066.84 C1205.70,2066.84 1207.85,2051.05 1207.85,2051.05 C1207.85,2051.05 1205.98,2063.20 1205.98,2063.20 C1205.98,2063.20 1208.02,2046.24 1208.02,2046.24 C1208.02,2046.24 1205.71,2063.90 1205.71,2063.90 C1205.71,2063.90 1208.00,2053.18 1208.00,2053.18 C1208.00,2053.18 1207.21,2068.74 1207.21,2068.74 C1207.21,2068.74 1207.83,2055.35 1207.83,2055.35 C1207.83,2055.35 1206.86,2067.21 1206.86,2067.21 C1206.86,2067.21 1208.82,2056.28 1208.82,2056.28 C1208.82,2056.28 1206.98,2065.62 1206.98,2065.62 C1206.98,2065.62 1207.15,2063.56 1207.15,2063.56 C1207.15,2063.56 1207.52,2069.03 1207.52,2069.03 C1207.52,2069.03 1208.49,2072.13 1208.49,2072.13 C1208.49,2072.13 1209.60,2066.56 1209.60,2066.56 C1209.60,2066.56 1209.71,2068.78 1209.71,2068.78 C1209.71,2068.78 1209.72,2066.49 1209.72,2066.49 C1209.72,2066.49 1209.26,2068.61 1209.26,2068.61 C1209.26,2068.61 1209.94,2065.74 1209.94,2065.74 C1209.94,2065.74 1209.43,2069.16 1209.43,2069.16 C1209.43,2069.16 1210.10,2064.85 1210.10,2064.85 C1210.10,2064.85 1207.36,2077.80 1207.36,2077.80 C1207.36,2077.80 1206.70,2086.00 1206.70,2086.00 C1206.70,2086.00 1208.06,2077.44 1208.06,2077.44 C1208.06,2077.44 1206.50,2090.36 1206.50,2090.36 C1206.50,2090.36 1208.59,2077.64 1208.59,2077.64 C1208.59,2077.64 1206.81,2094.64 1206.81,2094.64 C1206.81,2094.64 1208.44,2077.26 1208.44,2077.26 C1208.44,2077.26 1206.68,2092.78 1206.68,2092.78 C1205.26,2092.52 1208.87,2075.93 1209.41,2075.42 C1209.41,2075.42 1208.09,2083.11 1208.09,2083.11 C1208.09,2083.11 1210.19,2073.95 1210.19,2073.95 C1210.19,2073.95 1209.29,2078.92 1209.29,2078.92 C1209.29,2078.92 1210.29,2072.90 1210.29,2072.90 C1210.29,2072.90 1209.87,2076.22 1209.87,2076.22 C1209.87,2076.22 1210.62,2072.71 1210.62,2072.71 C1210.62,2072.71 1209.52,2076.71 1209.52,2076.71 C1209.52,2076.71 1209.92,2074.15 1209.92,2074.15 C1209.92,2074.15 1208.03,2083.12 1208.03,2083.12 C1208.03,2083.12 1208.16,2082.03 1208.16,2082.03 C1208.16,2082.03 1206.40,2095.09 1206.40,2095.09 C1206.40,2095.09 1207.36,2086.73 1207.36,2086.73 C1207.36,2086.73 1206.59,2098.85 1206.59,2098.85 C1206.59,2098.85 1207.61,2086.73 1207.61,2086.73 C1207.61,2086.73 1206.13,2098.88 1206.13,2098.88 C1206.13,2098.88 1206.09,2097.70 1206.09,2097.70 C1206.03,2098.06 1205.99,2098.31 1205.96,2098.47 C1205.93,2098.63 1205.87,2098.91 1205.77,2099.31" fill="none" stroke="rgb(255, 255, 255)" stroke-width="0.70" stroke-opacity="1.00" stroke-linejoin="round"/>
<path d="M1210.33,2197.68 Q1210.35,2231.69 1210.37,2265.69 Q1210.04,2269.15 1210.44,2274.41 Q1213.88,2389.68 1232.20,2483.41 Q1250.53,2577.13 1329.39,2682.46 Q1336.60,2693.02 1360.93,2716.90 Q1364.95,2668.13 1366.58,2612.11 Q1366.05,2611.80 1365.52,2611.49 Q1360.55,2606.70 1357.95,2603.88 Q1355.36,2601.07 1354.92,2600.53 Q1250.99,2473.35 1251.07,2200.49" fill="none" stroke="rgb(0, 0, 0)" stroke-width="7.00" stroke-opacity="1.00" stroke-linejoin="round"/>
<path d="M1378.56,2137.92 L1377.01,2203.58" fill="none" stroke="rgb(0, 0, 0)" stroke-width="7.00" stroke-opacity="1.00" stroke-linejoin="round"/>
</g>
</svg>
