<?xml version="1.0" encoding="UTF-8" standalone="no"?>
<!DOCTYPE svg PUBLIC "-//W3C//DTD SVG 1.1//EN" "http://www.w3.org/Graphics/SVG/1.1/DTD/svg11.dtd">
<svg width="1440.00" height="960.00" viewBox="0.00 0.00 6000.00 4000.00" xmlns="http://www.w3.org/2000/svg" xmlns:xlink="http://www.w3.org/1999/xlink">
<g stroke-linecap="round" id="도어(3)">
<path d="M1628.86,1688.81 Q1639.42,1921.85 1647.96,2154.30 Q1648.22,2158.75 1648.49,2163.20 Q1648.61,2163.68 1648.72,2164.17 Q1655.76,2336.56 1659.90,2510.59 Q1659.62,2520.74 1659.74,2536.91 Q1659.87,2553.09 1660.05,2569.04 Q1660.22,2584.99 1660.53,2610.09 Q1567.18,2552.89 1479.54,2525.06 Q1475.66,2523.83 1473.24,2522.98 Q1470.81,2522.13 1470.56,2521.42 Q1443.80,2465.91 1358.13,2442.51 Q1351.48,2068.17 1344.06,1693.85 Q1532.17,1676.98 1628.86,1688.81 Z" fill="none" stroke="rgb(0, 0, 0)" stroke-width="7.00" stroke-opacity="1.00" stroke-linejoin="round"/>
<path d="M1350.69,2161.44 Q1510.89,2150.84 1646.89,2163.93" fill="none" stroke="rgb(0, 0, 0)" stroke-width="7.00" stroke-opacity="1.00" stroke-linejoin="round"/>
<path d="M1347.67,2161.60 C1347.67,2161.60 1347.60,2161.60 1347.60,2161.60 C1347.60,2161.60 1347.62,2161.48 1347.62,2161.48 C1347.62,2161.48 1347.35,2164.33 1347.35,2164.33 C1347.35,2164.33 1348.06,2159.62 1348.06,2159.62 C1348.06,2159.62 1347.56,2164.32 1347.56,2164.32 C1347.36,2163.97 1347.26,2159.87 1347.36,2159.72 C1347.37,2159.71 1347.38,2159.69 1347.39,2159.66 C1347.39,2159.66 1347.73,2164.97 1347.73,2164.97 C1347.73,2164.97 1348.28,2159.60 1348.28,2159.60 C1348.28,2159.60 1347.73,2165.57 1347.73,2165.57 C1347.73,2165.57 1348.39,2160.38 1348.39,2160.38 C1348.40,2160.60 1348.02,2163.38 1347.85,2165.44 C1347.80,2165.96 1347.71,2166.36 1347.63,2166.54" fill="none" stroke="rgb(255, 255, 255)" stroke-width="0.70" stroke-opacity="1.00" stroke-linejoin="round"/>
<path d="M1348.32,2164.66 C1348.32,2164.66 1348.00,2166.05 1348.00,2166.05 C1348.00,2166.05 1348.45,2161.88 1348.45,2161.88 C1348.45,2161.88 1348.63,2165.68 1348.63,2165.68 C1348.63,2165.68 1348.39,2162.29 1348.39,2162.29 C1348.39,2162.29 1348.46,2165.71 1348.46,2165.71 C1348.46,2165.71 1348.91,2160.59 1348.91,2160.59 C1348.91,2160.59 1348.64,2165.37 1348.64,2165.37 C1348.64,2165.37 1348.69,2161.86 1348.69,2161.86 C1348.69,2161.86 1348.68,2165.28 1348.68,2165.28 C1348.68,2165.28 1349.15,2161.78 1349.15,2161.78 C1349.15,2161.78 1349.01,2163.33 1349.01,2163.33 C1349.01,2163.33 1349.34,2161.95 1349.34,2161.95 C1349.34,2161.95 1349.05,2163.24 1349.05,2163.24 C1349.05,2163.24 1349.33,2160.69 1349.33,2160.69 C1349.33,2160.69 1349.05,2162.64 1349.05,2162.64 C1349.05,2162.64 1349.14,2159.34 1349.14,2159.34 C1349.14,2159.34 1348.92,2163.57 1348.92,2163.57 C1348.92,2163.57 1349.24,2158.62 1349.24,2158.62 C1349.24,2158.62 1348.48,2163.67 1348.48,2163.67 C1348.48,2163.67 1349.00,2158.10 1349.00,2158.10 C1349.00,2158.10 1348.65,2166.22 1348.65,2166.22 C1348.65,2166.22 1348.64,2163.01 1348.64,2163.01 C1348.64,2163.01 1348.66,2166.22 1348.66,2166.22 C1348.66,2166.22 1348.94,2163.50 1348.94,2163.50 C1348.94,2163.50 1348.88,2165.90 1348.88,2165.90 C1348.88,2165.90 1349.02,2163.73 1349.02,2163.73 C1349.02,2163.73 1348.98,2165.53 1348.98,2165.53 C1348.98,2165.53 1349.25,2163.68 1349.25,2163.68 C1349.25,2163.68 1349.09,2165.40 1349.09,2165.40 C1349.09,2165.40 1349.36,2163.41 1349.36,2163.41 C1349.36,2163.41 1349.32,2164.91 1349.32,2164.91 C1349.32,2164.91 1347.67,2162.79 1347.67,2162.79 C1347.26,2162.88 1346.96,2162.88 1346.87,2162.90 C1346.81,2162.91 1346.49,2163.17 1346.33,2163.30 C1346.30,2163.33 1346.29,2163.34 1346.29,2163.34" fill="none" stroke="rgb(255, 255, 255)" stroke-width="0.70" stroke-opacity="1.00" stroke-linejoin="round"/>
</g>
</svg>
