<?xml version="1.0" encoding="UTF-8" standalone="no"?>
<!DOCTYPE svg PUBLIC "-//W3C//DTD SVG 1.1//EN" "http://www.w3.org/Graphics/SVG/1.1/DTD/svg11.dtd">
<svg width="1440.00" height="960.00" viewBox="0.00 0.00 6000.00 4000.00" xmlns="http://www.w3.org/2000/svg" xmlns:xlink="http://www.w3.org/1999/xlink">
<g stroke-linecap="round" id="범퍼(2)">
<path d="M1288.06,1337.64 Q1408.48,1325.78 1455.45,1393.93 Q1527.85,1499.87 1462.90,1596.15 Q1460.63,1599.10 1458.35,1602.04 Q1421.06,1648.25 1345.15,1655.52 Q1344.86,1675.50 1344.57,1695.48 Q1519.27,1674.98 1627.76,1689.21 Q1630.85,1687.37 1633.94,1685.52 Q1641.39,1679.06 1648.84,1672.59 Q1650.34,1671.10 1651.83,1669.61 Q1635.65,1469.57 1561.11,1273.11 Q1561.05,1272.72 1560.77,1272.16 Q1560.50,1271.60 1558.54,1269.04 Q1556.57,1266.47 1556.57,1266.47 Q1541.82,1249.67 1506.13,1235.71 Q1504.30,1234.83 1502.47,1233.96 Q1441.80,1214.28 1344.26,1216.73 Q1301.65,1221.62 1289.88,1258.32 Q1290.07,1260.85 1289.05,1263.80 Q1285.93,1302.28 1288.06,1337.64 Z" fill="none" stroke="rgb(0, 0, 0)" stroke-width="7.00" stroke-opacity="1.00" stroke-linejoin="round"/>
<path d="M1492.80,1232.63 Q1495.29,1280.42 1497.78,1328.22 Q1498.00,1332.62 1498.15,1335.01 Q1498.29,1337.39 1498.37,1337.75 Q1500.55,1350.06 1533.94,1359.73 Q1534.74,1359.97 1537.72,1356.59 Q1549.15,1333.20 1517.53,1239.51" fill="none" stroke="rgb(0, 0, 0)" stroke-width="7.00" stroke-opacity="1.00" stroke-linejoin="round"/>
<path d="M1521.05,1240.69 L1521.10,1240.70" fill="none" stroke="rgb(0, 0, 0)" stroke-width="4.00" stroke-opacity="1.00" stroke-linejoin="round"/>
<path d="M1520.91,1240.43 L1520.91,1240.38" fill="none" stroke="rgb(0, 0, 0)" stroke-width="4.00" stroke-opacity="1.00" stroke-linejoin="round"/>
<path d="M1516.31,1238.59 L1516.33,1238.60" fill="none" stroke="rgb(0, 0, 0)" stroke-width="4.00" stroke-opacity="1.00" stroke-linejoin="round"/>
<path d="M1515.58,1238.10 L1515.63,1238.09" fill="none" stroke="rgb(0, 0, 0)" stroke-width="4.00" stroke-opacity="1.00" stroke-linejoin="round"/>
<path d="M1515.14,1237.93 L1515.18,1237.90" fill="none" stroke="rgb(0, 0, 0)" stroke-width="4.00" stroke-opacity="1.00" stroke-linejoin="round"/>
<path d="M1514.40,1237.66 L1514.42,1237.58" fill="none" stroke="rgb(0, 0, 0)" stroke-width="4.00" stroke-opacity="1.00" stroke-linejoin="round"/>
<path d="M1512.96,1237.20 L1512.96,1237.13" fill="none" stroke="rgb(0, 0, 0)" stroke-width="4.00" stroke-opacity="1.00" stroke-linejoin="round"/>
<path d="M1512.33,1236.78 L1512.38,1236.75" fill="none" stroke="rgb(0, 0, 0)" stroke-width="4.00" stroke-opacity="1.00" stroke-linejoin="round"/>
<path d="M1516.33,1238.53 L1516.52,1238.53" fill="none" stroke="rgb(0, 0, 0)" stroke-width="4.00" stroke-opacity="1.00" stroke-linejoin="round"/>
<path d="M1516.10,1237.96 L1516.14,1237.90" fill="none" stroke="rgb(0, 0, 0)" stroke-width="4.00" stroke-opacity="1.00" stroke-linejoin="round"/>
<path d="M1514.52,1237.54 L1514.53,1237.56" fill="none" stroke="rgb(0, 0, 0)" stroke-width="4.00" stroke-opacity="1.00" stroke-linejoin="round"/>
<path d="M1513.67,1237.49 L1513.69,1237.39" fill="none" stroke="rgb(0, 0, 0)" stroke-width="4.00" stroke-opacity="1.00" stroke-linejoin="round"/>
<path d="M1513.83,1237.11 L1513.86,1237.04" fill="none" stroke="rgb(0, 0, 0)" stroke-width="4.00" stroke-opacity="1.00" stroke-linejoin="round"/>
<path d="M1513.89,1237.15 L1513.93,1237.09" fill="none" stroke="rgb(0, 0, 0)" stroke-width="4.00" stroke-opacity="1.00" stroke-linejoin="round"/>
<path d="M1512.11,1237.11 L1512.05,1236.99" fill="none" stroke="rgb(0, 0, 0)" stroke-width="4.00" stroke-opacity="1.00" stroke-linejoin="round"/>
<path d="M1511.96,1236.29 L1512.07,1236.28" fill="none" stroke="rgb(0, 0, 0)" stroke-width="4.00" stroke-opacity="1.00" stroke-linejoin="round"/>
<path d="M1511.72,1236.15 L1511.71,1236.10" fill="none" stroke="rgb(0, 0, 0)" stroke-width="4.00" stroke-opacity="1.00" stroke-linejoin="round"/>
<path d="M1510.17,1235.89 L1510.14,1235.80" fill="none" stroke="rgb(0, 0, 0)" stroke-width="4.00" stroke-opacity="1.00" stroke-linejoin="round"/>
<path d="M1509.47,1235.50 L1509.49,1235.44" fill="none" stroke="rgb(0, 0, 0)" stroke-width="4.00" stroke-opacity="1.00" stroke-linejoin="round"/>
<path d="M1508.90,1234.87 L1508.92,1234.80" fill="none" stroke="rgb(0, 0, 0)" stroke-width="4.00" stroke-opacity="1.00" stroke-linejoin="round"/>
<path d="M1507.86,1234.50 L1507.88,1234.44" fill="none" stroke="rgb(0, 0, 0)" stroke-width="4.00" stroke-opacity="1.00" stroke-linejoin="round"/>
<path d="M1506.97,1234.31 L1506.98,1234.22" fill="none" stroke="rgb(0, 0, 0)" stroke-width="4.00" stroke-opacity="1.00" stroke-linejoin="round"/>
<path d="M1506.21,1233.95 L1506.27,1233.87" fill="none" stroke="rgb(0, 0, 0)" stroke-width="4.00" stroke-opacity="1.00" stroke-linejoin="round"/>
</g>
</svg>
