<?xml version="1.0" encoding="UTF-8" standalone="no"?>
<!DOCTYPE svg PUBLIC "-//W3C//DTD SVG 1.1//EN" "http://www.w3.org/Graphics/SVG/1.1/DTD/svg11.dtd">
<svg width="1440.00" height="960.00" viewBox="0.00 0.00 6000.00 4000.00" xmlns="http://www.w3.org/2000/svg" xmlns:xlink="http://www.w3.org/1999/xlink">
<g stroke-linecap="round" id="사이드실패널(8)">
<path d="M1287.47,1655.35 C1304.17,1655.26 1329.33,1655.21 1337.81,1655.26 C1343.44,1655.42 1344.44,1655.83 1344.39,1656.97 C1344.32,1657.84 1343.53,1659.88 1343.64,1662.07 C1344.58,1694.78 1345.60,1729.97 1346.15,1762.90 C1346.42,1778.67 1347.00,1813.47 1347.32,1832.50 C1347.60,1849.21 1348.20,1885.07 1348.52,1904.22 C1348.83,1923.17 1349.46,1960.48 1349.77,1978.84 C1350.07,1997.21 1350.68,2033.30 1350.98,2051.03 C1351.39,2073.17 1352.20,2116.60 1352.61,2137.89 C1353.06,2160.31 1353.90,2202.60 1354.30,2222.47 C1354.73,2243.81 1355.60,2287.34 1356.04,2309.53 C1356.46,2330.88 1357.27,2372.74 1357.66,2393.25 C1358.00,2412.01 1358.42,2435.63 1358.50,2440.49 C1355.03,2442.15 1352.54,2442.55 1349.49,2441.71 C1347.96,2441.33 1324.51,2438.78 1316.15,2438.20 C1307.78,2437.83 1296.24,2437.61 1286.78,2437.75 C1286.82,2416.89 1286.90,2370.83 1286.95,2345.65 C1287.00,2316.15 1287.11,2252.82 1287.18,2219.00 C1287.24,2180.86 1287.39,2100.27 1287.47,2057.81 C1287.54,2014.34 1287.69,1931.65 1287.76,1892.43 C1287.83,1857.53 1287.94,1792.05 1288.00,1761.47 C1288.05,1735.20 1288.13,1686.99 1288.17,1665.05 C1288.18,1662.61 1288.19,1657.79 1288.19,1655.42" fill="none" stroke="rgb(0, 0, 0)" stroke-width="7.00" stroke-opacity="1.00" stroke-linejoin="round"/>
</g>
</svg>
