<?xml version="1.0" encoding="UTF-8" standalone="no"?>
<!DOCTYPE svg PUBLIC "-//W3C//DTD SVG 1.1//EN" "http://www.w3.org/Graphics/SVG/1.1/DTD/svg11.dtd">
<svg width="1440.00" height="960.00" viewBox="0.00 0.00 6000.00 4000.00" xmlns="http://www.w3.org/2000/svg" xmlns:xlink="http://www.w3.org/1999/xlink">
<g stroke-linecap="round" id="타이어(좌)">
<path d="M1315.06,1365.76 C1321.51,1364.83 1337.55,1364.42 1345.07,1365.00 C1353.47,1365.66 1367.30,1368.70 1374.30,1370.99 C1381.55,1373.38 1395.19,1379.49 1401.54,1383.42 C1407.91,1387.38 1419.80,1396.59 1425.39,1401.88 C1430.11,1406.38 1440.14,1418.92 1444.29,1425.34 C1448.89,1432.50 1454.66,1444.30 1457.48,1452.33 C1460.00,1459.57 1463.75,1475.24 1464.41,1481.76 C1465.16,1489.46 1465.16,1504.59 1464.40,1512.10 C1463.62,1519.58 1460.11,1534.22 1457.58,1541.48 C1455.12,1548.49 1449.08,1561.41 1444.49,1568.55 C1440.37,1574.92 1430.28,1587.52 1425.62,1592.12 C1420.95,1596.70 1408.20,1606.55 1401.79,1610.55 C1394.61,1614.99 1381.65,1620.75 1374.65,1623.05 C1367.39,1625.42 1352.80,1628.57 1345.38,1629.16 C1337.92,1629.73 1322.94,1629.34 1315.34,1628.38 C1308.90,1627.54 1293.49,1623.34 1286.38,1620.61 C1278.50,1617.55 1266.97,1611.43 1260.00,1606.60 C1253.75,1602.24 1241.60,1591.79 1237.27,1586.91 C1232.17,1581.13 1223.37,1568.88 1219.61,1562.36 C1215.89,1555.84 1210.20,1541.91 1208.02,1534.54 C1205.93,1527.41 1203.29,1513.37 1202.86,1504.87 C1202.48,1497.27 1203.30,1481.09 1204.40,1474.61 C1205.51,1468.12 1210.09,1452.59 1212.95,1445.55 C1216.17,1437.69 1223.30,1425.35 1227.63,1419.33 C1232.12,1413.11 1242.09,1401.90 1247.75,1397.02 C1253.45,1392.13 1265.80,1383.56 1272.51,1379.82 C1278.21,1376.68 1293.12,1370.93 1300.46,1368.92 C1304.10,1367.94 1312.24,1366.18 1315.06,1365.76 Z" fill="none" stroke="rgb(0, 0, 0)" stroke-width="7.00" stroke-opacity="1.00" stroke-linejoin="round"/>
<path d="M1309.06,2467.76 C1315.51,2466.83 1331.55,2466.42 1339.07,2467.00 C1347.47,2467.66 1361.30,2470.70 1368.30,2472.99 C1375.55,2475.38 1389.19,2481.49 1395.54,2485.42 C1401.91,2489.38 1413.80,2498.59 1419.39,2503.88 C1424.11,2508.38 1434.14,2520.92 1438.29,2527.34 C1442.89,2534.50 1448.66,2546.30 1451.48,2554.33 C1454.00,2561.57 1457.75,2577.24 1458.41,2583.76 C1459.16,2591.46 1459.16,2606.59 1458.40,2614.10 C1457.62,2621.58 1454.11,2636.22 1451.58,2643.48 C1449.12,2650.49 1443.08,2663.41 1438.49,2670.55 C1434.37,2676.92 1424.28,2689.52 1419.62,2694.12 C1414.95,2698.70 1402.20,2708.55 1395.79,2712.55 C1388.61,2716.99 1375.65,2722.75 1368.65,2725.05 C1361.39,2727.42 1346.80,2730.57 1339.38,2731.16 C1331.92,2731.73 1316.94,2731.34 1309.34,2730.38 C1302.90,2729.54 1287.49,2725.34 1280.38,2722.61 C1272.50,2719.55 1260.97,2713.43 1254.00,2708.60 C1247.75,2704.24 1235.60,2693.79 1231.27,2688.91 C1226.17,2683.13 1217.37,2670.88 1213.61,2664.36 C1209.89,2657.84 1204.20,2643.91 1202.02,2636.54 C1199.93,2629.41 1197.29,2615.37 1196.86,2606.87 C1196.48,2599.27 1197.30,2583.09 1198.40,2576.61 C1199.51,2570.12 1204.09,2554.59 1206.95,2547.55 C1210.17,2539.69 1217.30,2527.35 1221.63,2521.33 C1226.12,2515.11 1236.09,2503.90 1241.75,2499.02 C1247.45,2494.13 1259.80,2485.56 1266.51,2481.82 C1272.21,2478.68 1287.12,2472.93 1294.46,2470.92 C1298.10,2469.94 1306.24,2468.18 1309.06,2467.76 Z" fill="none" stroke="rgb(0, 0, 0)" stroke-width="7.00" stroke-opacity="1.00" stroke-linejoin="round"/>
<path d="M1319.34,1409.16 C1326.27,1408.16 1343.15,1408.72 1349.92,1410.30 C1357.56,1412.11 1371.75,1417.96 1378.17,1422.20 C1381.39,1424.34 1387.43,1429.08 1390.37,1431.78 C1395.49,1436.53 1405.51,1450.25 1408.62,1456.58 C1411.70,1462.93 1416.39,1479.31 1417.00,1486.30 C1417.65,1494.20 1416.52,1509.63 1414.52,1517.10 C1413.49,1520.86 1410.89,1528.12 1409.26,1531.78 C1406.37,1538.16 1396.54,1552.02 1391.54,1556.97 C1386.51,1561.88 1372.53,1571.44 1366.13,1574.19 C1358.89,1577.26 1344.01,1580.94 1336.35,1581.33 C1332.49,1581.50 1324.85,1581.25 1320.90,1580.81 C1313.99,1580.01 1297.90,1574.86 1291.70,1571.58 C1285.51,1568.28 1272.19,1557.81 1267.62,1552.51 C1262.50,1546.51 1254.43,1533.36 1251.69,1526.12 C1250.34,1522.47 1248.22,1515.06 1247.41,1511.12 C1246.02,1504.24 1245.91,1487.20 1247.08,1480.23 C1248.28,1473.27 1254.02,1457.24 1257.60,1451.22 C1261.67,1444.44 1271.57,1432.63 1277.54,1427.77 C1280.56,1425.34 1286.89,1421.01 1290.34,1419.02 C1296.39,1415.57 1312.42,1410.19 1319.34,1409.16 Z" fill="none" stroke="rgb(0, 0, 0)" stroke-width="7.00" stroke-opacity="1.00" stroke-linejoin="round"/>
<path d="M1288.18,1336.32 L1288.70,1371.49" fill="none" stroke="rgb(0, 0, 0)" stroke-width="7.00" stroke-opacity="1.00" stroke-linejoin="round"/>
<path d="M1287.47,1622.73 L1288.06,1656.83" fill="none" stroke="rgb(0, 0, 0)" stroke-width="7.00" stroke-opacity="1.00" stroke-linejoin="round"/>
<path d="M1287.54,2437.30 L1287.58,2437.28" fill="none" stroke="rgb(0, 0, 0)" stroke-width="7.00" stroke-opacity="1.00" stroke-linejoin="round"/>
<path d="M1287.52,2437.38 L1287.53,2437.38" fill="none" stroke="rgb(0, 0, 0)" stroke-width="7.00" stroke-opacity="1.00" stroke-linejoin="round"/>
<path d="M1287.09,2437.20 L1286.36,2472.85" fill="none" stroke="rgb(0, 0, 0)" stroke-width="7.00" stroke-opacity="1.00" stroke-linejoin="round"/>
<path d="M1290.43,2761.64 L1289.78,2726.45" fill="none" stroke="rgb(0, 0, 0)" stroke-width="7.00" stroke-opacity="1.00" stroke-linejoin="round"/>
<path d="M1312.31,2511.73 C1319.39,2510.73 1336.64,2511.30 1343.57,2512.88 C1351.38,2514.70 1365.88,2520.58 1372.45,2524.83 C1375.74,2526.98 1381.90,2531.74 1384.91,2534.45 C1390.15,2539.22 1400.39,2553.00 1403.57,2559.35 C1406.72,2565.73 1411.51,2582.17 1412.13,2589.19 C1412.80,2597.12 1411.65,2612.62 1409.60,2620.12 C1408.55,2623.90 1405.89,2631.18 1404.22,2634.86 C1401.27,2641.27 1391.22,2655.19 1386.11,2660.15 C1380.97,2665.09 1366.68,2674.69 1360.14,2677.44 C1352.74,2680.52 1337.53,2684.22 1329.70,2684.61 C1325.75,2684.79 1317.95,2684.53 1313.91,2684.09 C1306.84,2683.29 1290.40,2678.11 1284.06,2674.82 C1277.73,2671.50 1264.11,2660.99 1259.45,2655.68 C1254.21,2649.65 1245.96,2636.44 1243.17,2629.17 C1241.78,2625.51 1239.61,2618.07 1238.78,2614.12 C1237.37,2607.21 1237.25,2590.09 1238.45,2583.10 C1239.68,2576.11 1245.55,2560.01 1249.21,2553.97 C1253.37,2547.16 1263.48,2535.30 1269.59,2530.42 C1272.67,2527.98 1279.14,2523.64 1282.67,2521.64 C1288.86,2518.17 1305.23,2512.77 1312.31,2511.73 Z" fill="none" stroke="rgb(0, 0, 0)" stroke-width="7.00" stroke-opacity="1.00" stroke-linejoin="round"/>
</g>
</svg>
