<?xml version="1.0" encoding="UTF-8" standalone="no"?>
<!DOCTYPE svg PUBLIC "-//W3C//DTD SVG 1.1//EN" "http://www.w3.org/Graphics/SVG/1.1/DTD/svg11.dtd">
<svg width="1440.00" height="960.00" viewBox="0.00 0.00 6000.00 4000.00" xmlns="http://www.w3.org/2000/svg" xmlns:xlink="http://www.w3.org/1999/xlink">
<g stroke-linecap="round" id="필러패널(14)">
<path d="M1815.00,2147.61 L1651.24,2138.59" fill="none" stroke="rgb(0, 0, 0)" stroke-width="7.00" stroke-opacity="1.00" stroke-linejoin="round"/>
<path d="M1776.92,2141.74 Q1785.06,1980.65 1629.68,1689.59 Q1629.66,1689.38 1630.67,1688.37 Q1631.68,1687.37 1633.42,1685.66 Q1642.10,1677.31 1650.79,1668.97 Q1701.18,1771.00 1751.57,1873.04 Q1751.95,1873.83 1752.58,1874.90 Q1753.21,1875.98 1755.48,1880.23 Q1802.20,1974.66 1811.59,2062.15 Q1812.54,2066.73 1813.48,2071.32 Q1814.40,2108.61 1815.32,2145.89 Q1815.32,2146.07 1815.38,2146.24 Q1816.15,2173.04 1816.85,2199.85 Q1735.01,2201.05 1652.41,2202.27" fill="none" stroke="rgb(0, 0, 0)" stroke-width="7.00" stroke-opacity="1.00" stroke-linejoin="round"/>
<path d="M1810.77,2070.16 L1810.98,2070.63" fill="none" stroke="rgb(0, 0, 0)" stroke-width="1.50" stroke-opacity="1.00" stroke-linejoin="round"/>
<path d="M1810.54,2071.50 L1810.61,2071.40" fill="none" stroke="rgb(0, 0, 0)" stroke-width="1.50" stroke-opacity="1.00" stroke-linejoin="round"/>
<path d="M1816.71,2069.10 C1816.67,2069.27 1816.66,2069.50 1816.69,2069.78 C1816.88,2071.87 1818.06,2076.84 1818.11,2077.81 C1818.11,2077.81 1816.08,2069.47 1816.08,2069.47 C1816.08,2069.47 1817.48,2077.64 1817.48,2077.64 C1817.48,2077.64 1816.15,2067.11 1816.15,2067.11 C1816.15,2067.11 1817.30,2075.69 1817.30,2075.69 C1817.30,2075.69 1816.32,2066.33 1816.32,2066.33 C1816.32,2066.33 1818.01,2077.91 1818.01,2077.91 C1818.01,2077.91 1816.42,2068.08 1816.42,2068.08 C1816.27,2068.44 1817.82,2072.71 1818.40,2075.17 C1819.00,2077.78 1819.42,2082.03 1819.48,2082.30 C1819.48,2082.30 1817.13,2067.74 1817.13,2067.74 C1817.22,2068.46 1830.40,2085.78 1831.96,2088.22 C1832.56,2089.19 1832.55,2089.81 1831.81,2089.28 C1830.77,2088.50 1819.38,2077.32 1818.94,2077.10 C1818.15,2076.76 1819.18,2079.78 1819.46,2080.74 C1819.59,2081.17 1819.65,2081.76 1819.65,2082.51 C1819.65,2082.51 1816.94,2063.16 1816.94,2063.16 C1816.94,2063.16 1820.02,2081.48 1820.02,2081.48 C1820.02,2081.48 1816.30,2060.79 1816.30,2060.79 C1816.30,2060.79 1820.23,2077.68 1820.23,2077.68 C1820.23,2077.68 1816.87,2057.28 1816.87,2057.28 C1816.87,2057.28 1820.55,2075.05 1820.55,2075.05 C1820.55,2075.05 1817.03,2055.60 1817.03,2055.60 C1817.03,2055.60 1821.29,2075.14 1821.29,2075.14 C1821.29,2075.14 1819.08,2058.12 1819.08,2058.12 C1819.08,2058.12 1821.04,2071.40 1821.04,2071.40 C1821.04,2071.40 1818.07,2052.98 1818.07,2052.98 C1818.07,2052.98 1821.30,2066.84 1821.30,2066.84 C1821.30,2066.84 1819.15,2051.05 1819.15,2051.05 C1819.15,2051.05 1821.02,2063.20 1821.02,2063.20 C1821.02,2063.20 1818.98,2046.24 1818.98,2046.24 C1818.98,2046.24 1821.29,2063.90 1821.29,2063.90 C1821.29,2063.90 1819.00,2053.18 1819.00,2053.18 C1819.00,2053.18 1819.79,2068.74 1819.79,2068.74 C1819.79,2068.74 1819.17,2055.35 1819.17,2055.35 C1819.17,2055.35 1820.14,2067.21 1820.14,2067.21 C1820.14,2067.21 1818.18,2056.28 1818.18,2056.28 C1818.18,2056.28 1820.02,2065.62 1820.02,2065.62 C1820.02,2065.62 1819.85,2063.56 1819.85,2063.56 C1819.85,2063.56 1819.48,2069.03 1819.48,2069.03 C1819.48,2069.03 1818.51,2072.13 1818.51,2072.13 C1818.51,2072.13 1817.40,2066.56 1817.40,2066.56 C1817.40,2066.56 1817.29,2068.78 1817.29,2068.78 C1817.29,2068.78 1817.28,2066.49 1817.28,2066.49 C1817.28,2066.49 1817.74,2068.61 1817.74,2068.61 C1817.74,2068.61 1817.06,2065.74 1817.06,2065.74 C1817.06,2065.74 1817.57,2069.16 1817.57,2069.16 C1817.57,2069.16 1816.90,2064.85 1816.90,2064.85 C1816.90,2064.85 1819.64,2077.80 1819.64,2077.80 C1819.64,2077.80 1820.30,2086.00 1820.30,2086.00 C1820.30,2086.00 1818.94,2077.44 1818.94,2077.44 C1818.94,2077.44 1820.50,2090.36 1820.50,2090.36 C1820.50,2090.36 1818.41,2077.64 1818.41,2077.64 C1818.41,2077.64 1820.19,2094.64 1820.19,2094.64 C1820.19,2094.64 1818.56,2077.26 1818.56,2077.26 C1818.56,2077.26 1820.32,2092.78 1820.32,2092.78 C1821.74,2092.52 1818.13,2075.93 1817.59,2075.42 C1817.59,2075.42 1818.91,2083.11 1818.91,2083.11 C1818.91,2083.11 1816.81,2073.95 1816.81,2073.95 C1816.81,2073.95 1817.71,2078.92 1817.71,2078.92 C1817.71,2078.92 1816.71,2072.90 1816.71,2072.90 C1816.71,2072.90 1817.13,2076.22 1817.13,2076.22 C1817.13,2076.22 1816.38,2072.71 1816.38,2072.71 C1816.38,2072.71 1817.48,2076.71 1817.48,2076.71 C1817.48,2076.71 1817.08,2074.15 1817.08,2074.15 C1817.08,2074.15 1818.97,2083.12 1818.97,2083.12 C1818.97,2083.12 1818.84,2082.03 1818.84,2082.03 C1818.84,2082.03 1820.60,2095.09 1820.60,2095.09 C1820.60,2095.09 1819.64,2086.73 1819.64,2086.73 C1819.64,2086.73 1820.41,2098.85 1820.41,2098.85 C1820.41,2098.85 1819.39,2086.73 1819.39,2086.73 C1819.39,2086.73 1820.87,2098.88 1820.87,2098.88 C1820.87,2098.88 1820.91,2097.70 1820.91,2097.70 C1820.97,2098.06 1821.01,2098.31 1821.04,2098.47 C1821.07,2098.63 1821.13,2098.91 1821.23,2099.31" fill="none" stroke="rgb(255, 255, 255)" stroke-width="0.70" stroke-opacity="1.00" stroke-linejoin="round"/>
<path d="M1816.67,2197.68 Q1816.65,2231.69 1816.63,2265.69 Q1816.96,2269.15 1816.56,2274.41 Q1813.12,2389.68 1794.80,2483.41 Q1776.47,2577.13 1697.61,2682.46 Q1690.40,2693.02 1666.07,2716.90 Q1662.05,2668.13 1660.42,2612.11 Q1660.95,2611.80 1661.48,2611.49 Q1666.45,2606.70 1669.05,2603.88 Q1671.64,2601.07 1672.08,2600.53 Q1776.01,2473.35 1775.93,2200.49" fill="none" stroke="rgb(0, 0, 0)" stroke-width="7.00" stroke-opacity="1.00" stroke-linejoin="round"/>
<path d="M1648.44,2137.92 L1649.99,2203.58" fill="none" stroke="rgb(0, 0, 0)" stroke-width="7.00" stroke-opacity="1.00" stroke-linejoin="round"/>
</g>
</svg>
